G04 #@! TF.GenerationSoftware,KiCad,Pcbnew,7.0.2*
G04 #@! TF.CreationDate,2023-08-30T10:55:34+01:00*
G04 #@! TF.ProjectId,Air quality project,41697220-7175-4616-9c69-74792070726f,rev?*
G04 #@! TF.SameCoordinates,Original*
G04 #@! TF.FileFunction,Legend,Top*
G04 #@! TF.FilePolarity,Positive*
%FSLAX45Y45*%
G04 Gerber Fmt 4.5, Leading zero omitted, Abs format (unit mm)*
G04 Created by KiCad (PCBNEW 7.0.2) date 2023-08-30 10:55:34*
%MOMM*%
%LPD*%
G01*
G04 APERTURE LIST*
%ADD10C,0.250000*%
%ADD11C,0.150000*%
%ADD12C,0.120000*%
%ADD13C,0.152400*%
%ADD14C,0.508000*%
G04 APERTURE END LIST*
D10*
X3254619Y-2453524D02*
X3254619Y-2253524D01*
X3254619Y-2253524D02*
X3302238Y-2253524D01*
X3302238Y-2253524D02*
X3330809Y-2263048D01*
X3330809Y-2263048D02*
X3349857Y-2282095D01*
X3349857Y-2282095D02*
X3359381Y-2301143D01*
X3359381Y-2301143D02*
X3368905Y-2339238D01*
X3368905Y-2339238D02*
X3368905Y-2367810D01*
X3368905Y-2367810D02*
X3359381Y-2405905D01*
X3359381Y-2405905D02*
X3349857Y-2424952D01*
X3349857Y-2424952D02*
X3330809Y-2444000D01*
X3330809Y-2444000D02*
X3302238Y-2453524D01*
X3302238Y-2453524D02*
X3254619Y-2453524D01*
X3454619Y-2453524D02*
X3454619Y-2253524D01*
X3454619Y-2253524D02*
X3502238Y-2253524D01*
X3502238Y-2253524D02*
X3530809Y-2263048D01*
X3530809Y-2263048D02*
X3549857Y-2282095D01*
X3549857Y-2282095D02*
X3559381Y-2301143D01*
X3559381Y-2301143D02*
X3568905Y-2339238D01*
X3568905Y-2339238D02*
X3568905Y-2367810D01*
X3568905Y-2367810D02*
X3559381Y-2405905D01*
X3559381Y-2405905D02*
X3549857Y-2424952D01*
X3549857Y-2424952D02*
X3530809Y-2444000D01*
X3530809Y-2444000D02*
X3502238Y-2453524D01*
X3502238Y-2453524D02*
X3454619Y-2453524D01*
X3654619Y-2377333D02*
X3807000Y-2377333D01*
X3892714Y-2444000D02*
X3921286Y-2453524D01*
X3921286Y-2453524D02*
X3968905Y-2453524D01*
X3968905Y-2453524D02*
X3987952Y-2444000D01*
X3987952Y-2444000D02*
X3997476Y-2434476D01*
X3997476Y-2434476D02*
X4007000Y-2415429D01*
X4007000Y-2415429D02*
X4007000Y-2396381D01*
X4007000Y-2396381D02*
X3997476Y-2377333D01*
X3997476Y-2377333D02*
X3987952Y-2367810D01*
X3987952Y-2367810D02*
X3968905Y-2358286D01*
X3968905Y-2358286D02*
X3930809Y-2348762D01*
X3930809Y-2348762D02*
X3911762Y-2339238D01*
X3911762Y-2339238D02*
X3902238Y-2329714D01*
X3902238Y-2329714D02*
X3892714Y-2310667D01*
X3892714Y-2310667D02*
X3892714Y-2291619D01*
X3892714Y-2291619D02*
X3902238Y-2272571D01*
X3902238Y-2272571D02*
X3911762Y-2263048D01*
X3911762Y-2263048D02*
X3930809Y-2253524D01*
X3930809Y-2253524D02*
X3978428Y-2253524D01*
X3978428Y-2253524D02*
X4007000Y-2263048D01*
X4178428Y-2444000D02*
X4159381Y-2453524D01*
X4159381Y-2453524D02*
X4121286Y-2453524D01*
X4121286Y-2453524D02*
X4102238Y-2444000D01*
X4102238Y-2444000D02*
X4092714Y-2434476D01*
X4092714Y-2434476D02*
X4083190Y-2415429D01*
X4083190Y-2415429D02*
X4083190Y-2358286D01*
X4083190Y-2358286D02*
X4092714Y-2339238D01*
X4092714Y-2339238D02*
X4102238Y-2329714D01*
X4102238Y-2329714D02*
X4121286Y-2320190D01*
X4121286Y-2320190D02*
X4159381Y-2320190D01*
X4159381Y-2320190D02*
X4178428Y-2329714D01*
X4264143Y-2453524D02*
X4264143Y-2320190D01*
X4264143Y-2253524D02*
X4254619Y-2263048D01*
X4254619Y-2263048D02*
X4264143Y-2272571D01*
X4264143Y-2272571D02*
X4273667Y-2263048D01*
X4273667Y-2263048D02*
X4264143Y-2253524D01*
X4264143Y-2253524D02*
X4264143Y-2272571D01*
X4435571Y-2444000D02*
X4416524Y-2453524D01*
X4416524Y-2453524D02*
X4378429Y-2453524D01*
X4378429Y-2453524D02*
X4359381Y-2444000D01*
X4359381Y-2444000D02*
X4349857Y-2424952D01*
X4349857Y-2424952D02*
X4349857Y-2348762D01*
X4349857Y-2348762D02*
X4359381Y-2329714D01*
X4359381Y-2329714D02*
X4378429Y-2320190D01*
X4378429Y-2320190D02*
X4416524Y-2320190D01*
X4416524Y-2320190D02*
X4435571Y-2329714D01*
X4435571Y-2329714D02*
X4445095Y-2348762D01*
X4445095Y-2348762D02*
X4445095Y-2367810D01*
X4445095Y-2367810D02*
X4349857Y-2386857D01*
X4530810Y-2320190D02*
X4530810Y-2453524D01*
X4530810Y-2339238D02*
X4540333Y-2329714D01*
X4540333Y-2329714D02*
X4559381Y-2320190D01*
X4559381Y-2320190D02*
X4587952Y-2320190D01*
X4587952Y-2320190D02*
X4607000Y-2329714D01*
X4607000Y-2329714D02*
X4616524Y-2348762D01*
X4616524Y-2348762D02*
X4616524Y-2453524D01*
X4683191Y-2320190D02*
X4759381Y-2320190D01*
X4711762Y-2253524D02*
X4711762Y-2424952D01*
X4711762Y-2424952D02*
X4721286Y-2444000D01*
X4721286Y-2444000D02*
X4740333Y-2453524D01*
X4740333Y-2453524D02*
X4759381Y-2453524D01*
X4826048Y-2453524D02*
X4826048Y-2320190D01*
X4826048Y-2253524D02*
X4816524Y-2263048D01*
X4816524Y-2263048D02*
X4826048Y-2272571D01*
X4826048Y-2272571D02*
X4835571Y-2263048D01*
X4835571Y-2263048D02*
X4826048Y-2253524D01*
X4826048Y-2253524D02*
X4826048Y-2272571D01*
X4892714Y-2320190D02*
X4968905Y-2320190D01*
X4921286Y-2453524D02*
X4921286Y-2282095D01*
X4921286Y-2282095D02*
X4930810Y-2263048D01*
X4930810Y-2263048D02*
X4949857Y-2253524D01*
X4949857Y-2253524D02*
X4968905Y-2253524D01*
X5035571Y-2453524D02*
X5035571Y-2320190D01*
X5035571Y-2253524D02*
X5026048Y-2263048D01*
X5026048Y-2263048D02*
X5035571Y-2272571D01*
X5035571Y-2272571D02*
X5045095Y-2263048D01*
X5045095Y-2263048D02*
X5035571Y-2253524D01*
X5035571Y-2253524D02*
X5035571Y-2272571D01*
X5216524Y-2444000D02*
X5197476Y-2453524D01*
X5197476Y-2453524D02*
X5159381Y-2453524D01*
X5159381Y-2453524D02*
X5140333Y-2444000D01*
X5140333Y-2444000D02*
X5130810Y-2434476D01*
X5130810Y-2434476D02*
X5121286Y-2415429D01*
X5121286Y-2415429D02*
X5121286Y-2358286D01*
X5121286Y-2358286D02*
X5130810Y-2339238D01*
X5130810Y-2339238D02*
X5140333Y-2329714D01*
X5140333Y-2329714D02*
X5159381Y-2320190D01*
X5159381Y-2320190D02*
X5197476Y-2320190D01*
X5197476Y-2320190D02*
X5216524Y-2329714D01*
X5549857Y-2453524D02*
X5454619Y-2453524D01*
X5454619Y-2453524D02*
X5454619Y-2253524D01*
X5587953Y-2320190D02*
X5664143Y-2320190D01*
X5616524Y-2253524D02*
X5616524Y-2424952D01*
X5616524Y-2424952D02*
X5626048Y-2444000D01*
X5626048Y-2444000D02*
X5645095Y-2453524D01*
X5645095Y-2453524D02*
X5664143Y-2453524D01*
X5816524Y-2453524D02*
X5816524Y-2253524D01*
X5816524Y-2444000D02*
X5797476Y-2453524D01*
X5797476Y-2453524D02*
X5759381Y-2453524D01*
X5759381Y-2453524D02*
X5740333Y-2444000D01*
X5740333Y-2444000D02*
X5730810Y-2434476D01*
X5730810Y-2434476D02*
X5721286Y-2415429D01*
X5721286Y-2415429D02*
X5721286Y-2358286D01*
X5721286Y-2358286D02*
X5730810Y-2339238D01*
X5730810Y-2339238D02*
X5740333Y-2329714D01*
X5740333Y-2329714D02*
X5759381Y-2320190D01*
X5759381Y-2320190D02*
X5797476Y-2320190D01*
X5797476Y-2320190D02*
X5816524Y-2329714D01*
X5911762Y-2434476D02*
X5921286Y-2444000D01*
X5921286Y-2444000D02*
X5911762Y-2453524D01*
X5911762Y-2453524D02*
X5902238Y-2444000D01*
X5902238Y-2444000D02*
X5911762Y-2434476D01*
X5911762Y-2434476D02*
X5911762Y-2453524D01*
X3245095Y-2720381D02*
X3340333Y-2720381D01*
X3226048Y-2777524D02*
X3292714Y-2577524D01*
X3292714Y-2577524D02*
X3359381Y-2777524D01*
X3426048Y-2777524D02*
X3426048Y-2644190D01*
X3426048Y-2577524D02*
X3416524Y-2587048D01*
X3416524Y-2587048D02*
X3426048Y-2596571D01*
X3426048Y-2596571D02*
X3435571Y-2587048D01*
X3435571Y-2587048D02*
X3426048Y-2577524D01*
X3426048Y-2577524D02*
X3426048Y-2596571D01*
X3521286Y-2777524D02*
X3521286Y-2644190D01*
X3521286Y-2682286D02*
X3530809Y-2663238D01*
X3530809Y-2663238D02*
X3540333Y-2653714D01*
X3540333Y-2653714D02*
X3559381Y-2644190D01*
X3559381Y-2644190D02*
X3578429Y-2644190D01*
X3930809Y-2796571D02*
X3911762Y-2787048D01*
X3911762Y-2787048D02*
X3892714Y-2768000D01*
X3892714Y-2768000D02*
X3864143Y-2739429D01*
X3864143Y-2739429D02*
X3845095Y-2729905D01*
X3845095Y-2729905D02*
X3826048Y-2729905D01*
X3835571Y-2777524D02*
X3816524Y-2768000D01*
X3816524Y-2768000D02*
X3797476Y-2748952D01*
X3797476Y-2748952D02*
X3787952Y-2710857D01*
X3787952Y-2710857D02*
X3787952Y-2644190D01*
X3787952Y-2644190D02*
X3797476Y-2606095D01*
X3797476Y-2606095D02*
X3816524Y-2587048D01*
X3816524Y-2587048D02*
X3835571Y-2577524D01*
X3835571Y-2577524D02*
X3873667Y-2577524D01*
X3873667Y-2577524D02*
X3892714Y-2587048D01*
X3892714Y-2587048D02*
X3911762Y-2606095D01*
X3911762Y-2606095D02*
X3921286Y-2644190D01*
X3921286Y-2644190D02*
X3921286Y-2710857D01*
X3921286Y-2710857D02*
X3911762Y-2748952D01*
X3911762Y-2748952D02*
X3892714Y-2768000D01*
X3892714Y-2768000D02*
X3873667Y-2777524D01*
X3873667Y-2777524D02*
X3835571Y-2777524D01*
X4092714Y-2644190D02*
X4092714Y-2777524D01*
X4007000Y-2644190D02*
X4007000Y-2748952D01*
X4007000Y-2748952D02*
X4016524Y-2768000D01*
X4016524Y-2768000D02*
X4035571Y-2777524D01*
X4035571Y-2777524D02*
X4064143Y-2777524D01*
X4064143Y-2777524D02*
X4083190Y-2768000D01*
X4083190Y-2768000D02*
X4092714Y-2758476D01*
X4273667Y-2777524D02*
X4273667Y-2672762D01*
X4273667Y-2672762D02*
X4264143Y-2653714D01*
X4264143Y-2653714D02*
X4245095Y-2644190D01*
X4245095Y-2644190D02*
X4207000Y-2644190D01*
X4207000Y-2644190D02*
X4187952Y-2653714D01*
X4273667Y-2768000D02*
X4254619Y-2777524D01*
X4254619Y-2777524D02*
X4207000Y-2777524D01*
X4207000Y-2777524D02*
X4187952Y-2768000D01*
X4187952Y-2768000D02*
X4178429Y-2748952D01*
X4178429Y-2748952D02*
X4178429Y-2729905D01*
X4178429Y-2729905D02*
X4187952Y-2710857D01*
X4187952Y-2710857D02*
X4207000Y-2701333D01*
X4207000Y-2701333D02*
X4254619Y-2701333D01*
X4254619Y-2701333D02*
X4273667Y-2691810D01*
X4397476Y-2777524D02*
X4378429Y-2768000D01*
X4378429Y-2768000D02*
X4368905Y-2748952D01*
X4368905Y-2748952D02*
X4368905Y-2577524D01*
X4473667Y-2777524D02*
X4473667Y-2644190D01*
X4473667Y-2577524D02*
X4464143Y-2587048D01*
X4464143Y-2587048D02*
X4473667Y-2596571D01*
X4473667Y-2596571D02*
X4483191Y-2587048D01*
X4483191Y-2587048D02*
X4473667Y-2577524D01*
X4473667Y-2577524D02*
X4473667Y-2596571D01*
X4540333Y-2644190D02*
X4616524Y-2644190D01*
X4568905Y-2577524D02*
X4568905Y-2748952D01*
X4568905Y-2748952D02*
X4578429Y-2768000D01*
X4578429Y-2768000D02*
X4597476Y-2777524D01*
X4597476Y-2777524D02*
X4616524Y-2777524D01*
X4664143Y-2644190D02*
X4711762Y-2777524D01*
X4759381Y-2644190D02*
X4711762Y-2777524D01*
X4711762Y-2777524D02*
X4692714Y-2825143D01*
X4692714Y-2825143D02*
X4683191Y-2834667D01*
X4683191Y-2834667D02*
X4664143Y-2844190D01*
X4987953Y-2777524D02*
X4987953Y-2577524D01*
X4987953Y-2577524D02*
X5064143Y-2577524D01*
X5064143Y-2577524D02*
X5083191Y-2587048D01*
X5083191Y-2587048D02*
X5092714Y-2596571D01*
X5092714Y-2596571D02*
X5102238Y-2615619D01*
X5102238Y-2615619D02*
X5102238Y-2644190D01*
X5102238Y-2644190D02*
X5092714Y-2663238D01*
X5092714Y-2663238D02*
X5083191Y-2672762D01*
X5083191Y-2672762D02*
X5064143Y-2682286D01*
X5064143Y-2682286D02*
X4987953Y-2682286D01*
X5187953Y-2777524D02*
X5187953Y-2644190D01*
X5187953Y-2682286D02*
X5197476Y-2663238D01*
X5197476Y-2663238D02*
X5207000Y-2653714D01*
X5207000Y-2653714D02*
X5226048Y-2644190D01*
X5226048Y-2644190D02*
X5245095Y-2644190D01*
X5340333Y-2777524D02*
X5321286Y-2768000D01*
X5321286Y-2768000D02*
X5311762Y-2758476D01*
X5311762Y-2758476D02*
X5302238Y-2739429D01*
X5302238Y-2739429D02*
X5302238Y-2682286D01*
X5302238Y-2682286D02*
X5311762Y-2663238D01*
X5311762Y-2663238D02*
X5321286Y-2653714D01*
X5321286Y-2653714D02*
X5340333Y-2644190D01*
X5340333Y-2644190D02*
X5368905Y-2644190D01*
X5368905Y-2644190D02*
X5387953Y-2653714D01*
X5387953Y-2653714D02*
X5397476Y-2663238D01*
X5397476Y-2663238D02*
X5407000Y-2682286D01*
X5407000Y-2682286D02*
X5407000Y-2739429D01*
X5407000Y-2739429D02*
X5397476Y-2758476D01*
X5397476Y-2758476D02*
X5387953Y-2768000D01*
X5387953Y-2768000D02*
X5368905Y-2777524D01*
X5368905Y-2777524D02*
X5340333Y-2777524D01*
X5492714Y-2644190D02*
X5492714Y-2815619D01*
X5492714Y-2815619D02*
X5483191Y-2834667D01*
X5483191Y-2834667D02*
X5464143Y-2844190D01*
X5464143Y-2844190D02*
X5454619Y-2844190D01*
X5492714Y-2577524D02*
X5483191Y-2587048D01*
X5483191Y-2587048D02*
X5492714Y-2596571D01*
X5492714Y-2596571D02*
X5502238Y-2587048D01*
X5502238Y-2587048D02*
X5492714Y-2577524D01*
X5492714Y-2577524D02*
X5492714Y-2596571D01*
X5664143Y-2768000D02*
X5645095Y-2777524D01*
X5645095Y-2777524D02*
X5607000Y-2777524D01*
X5607000Y-2777524D02*
X5587953Y-2768000D01*
X5587953Y-2768000D02*
X5578429Y-2748952D01*
X5578429Y-2748952D02*
X5578429Y-2672762D01*
X5578429Y-2672762D02*
X5587953Y-2653714D01*
X5587953Y-2653714D02*
X5607000Y-2644190D01*
X5607000Y-2644190D02*
X5645095Y-2644190D01*
X5645095Y-2644190D02*
X5664143Y-2653714D01*
X5664143Y-2653714D02*
X5673667Y-2672762D01*
X5673667Y-2672762D02*
X5673667Y-2691810D01*
X5673667Y-2691810D02*
X5578429Y-2710857D01*
X5845095Y-2768000D02*
X5826048Y-2777524D01*
X5826048Y-2777524D02*
X5787952Y-2777524D01*
X5787952Y-2777524D02*
X5768905Y-2768000D01*
X5768905Y-2768000D02*
X5759381Y-2758476D01*
X5759381Y-2758476D02*
X5749857Y-2739429D01*
X5749857Y-2739429D02*
X5749857Y-2682286D01*
X5749857Y-2682286D02*
X5759381Y-2663238D01*
X5759381Y-2663238D02*
X5768905Y-2653714D01*
X5768905Y-2653714D02*
X5787952Y-2644190D01*
X5787952Y-2644190D02*
X5826048Y-2644190D01*
X5826048Y-2644190D02*
X5845095Y-2653714D01*
X5902238Y-2644190D02*
X5978429Y-2644190D01*
X5930810Y-2577524D02*
X5930810Y-2748952D01*
X5930810Y-2748952D02*
X5940333Y-2768000D01*
X5940333Y-2768000D02*
X5959381Y-2777524D01*
X5959381Y-2777524D02*
X5978429Y-2777524D01*
X3235571Y-2901524D02*
X3368905Y-2901524D01*
X3368905Y-2901524D02*
X3283190Y-3101524D01*
X3540333Y-2901524D02*
X3445095Y-2901524D01*
X3445095Y-2901524D02*
X3435571Y-2996762D01*
X3435571Y-2996762D02*
X3445095Y-2987238D01*
X3445095Y-2987238D02*
X3464143Y-2977714D01*
X3464143Y-2977714D02*
X3511762Y-2977714D01*
X3511762Y-2977714D02*
X3530809Y-2987238D01*
X3530809Y-2987238D02*
X3540333Y-2996762D01*
X3540333Y-2996762D02*
X3549857Y-3015809D01*
X3549857Y-3015809D02*
X3549857Y-3063428D01*
X3549857Y-3063428D02*
X3540333Y-3082476D01*
X3540333Y-3082476D02*
X3530809Y-3092000D01*
X3530809Y-3092000D02*
X3511762Y-3101524D01*
X3511762Y-3101524D02*
X3464143Y-3101524D01*
X3464143Y-3101524D02*
X3445095Y-3092000D01*
X3445095Y-3092000D02*
X3435571Y-3082476D01*
X3721286Y-2968190D02*
X3721286Y-3101524D01*
X3673667Y-2892000D02*
X3626048Y-3034857D01*
X3626048Y-3034857D02*
X3749857Y-3034857D01*
X3807000Y-2901524D02*
X3940333Y-2901524D01*
X3940333Y-2901524D02*
X3854619Y-3101524D01*
X4102238Y-2901524D02*
X4064143Y-2901524D01*
X4064143Y-2901524D02*
X4045095Y-2911048D01*
X4045095Y-2911048D02*
X4035571Y-2920571D01*
X4035571Y-2920571D02*
X4016524Y-2949143D01*
X4016524Y-2949143D02*
X4007000Y-2987238D01*
X4007000Y-2987238D02*
X4007000Y-3063428D01*
X4007000Y-3063428D02*
X4016524Y-3082476D01*
X4016524Y-3082476D02*
X4026048Y-3092000D01*
X4026048Y-3092000D02*
X4045095Y-3101524D01*
X4045095Y-3101524D02*
X4083190Y-3101524D01*
X4083190Y-3101524D02*
X4102238Y-3092000D01*
X4102238Y-3092000D02*
X4111762Y-3082476D01*
X4111762Y-3082476D02*
X4121286Y-3063428D01*
X4121286Y-3063428D02*
X4121286Y-3015809D01*
X4121286Y-3015809D02*
X4111762Y-2996762D01*
X4111762Y-2996762D02*
X4102238Y-2987238D01*
X4102238Y-2987238D02*
X4083190Y-2977714D01*
X4083190Y-2977714D02*
X4045095Y-2977714D01*
X4045095Y-2977714D02*
X4026048Y-2987238D01*
X4026048Y-2987238D02*
X4016524Y-2996762D01*
X4016524Y-2996762D02*
X4007000Y-3015809D01*
X4302238Y-2901524D02*
X4207000Y-2901524D01*
X4207000Y-2901524D02*
X4197476Y-2996762D01*
X4197476Y-2996762D02*
X4207000Y-2987238D01*
X4207000Y-2987238D02*
X4226048Y-2977714D01*
X4226048Y-2977714D02*
X4273667Y-2977714D01*
X4273667Y-2977714D02*
X4292714Y-2987238D01*
X4292714Y-2987238D02*
X4302238Y-2996762D01*
X4302238Y-2996762D02*
X4311762Y-3015809D01*
X4311762Y-3015809D02*
X4311762Y-3063428D01*
X4311762Y-3063428D02*
X4302238Y-3082476D01*
X4302238Y-3082476D02*
X4292714Y-3092000D01*
X4292714Y-3092000D02*
X4273667Y-3101524D01*
X4273667Y-3101524D02*
X4226048Y-3101524D01*
X4226048Y-3101524D02*
X4207000Y-3092000D01*
X4207000Y-3092000D02*
X4197476Y-3082476D01*
X4397476Y-3082476D02*
X4407000Y-3092000D01*
X4407000Y-3092000D02*
X4397476Y-3101524D01*
X4397476Y-3101524D02*
X4387952Y-3092000D01*
X4387952Y-3092000D02*
X4397476Y-3082476D01*
X4397476Y-3082476D02*
X4397476Y-3101524D01*
X4473667Y-2968190D02*
X4521286Y-3101524D01*
X4521286Y-3101524D02*
X4568905Y-2968190D01*
X4749857Y-3101524D02*
X4635572Y-3101524D01*
X4692714Y-3101524D02*
X4692714Y-2901524D01*
X4692714Y-2901524D02*
X4673667Y-2930095D01*
X4673667Y-2930095D02*
X4654619Y-2949143D01*
X4654619Y-2949143D02*
X4635572Y-2958667D01*
D11*
G04 #@! TO.C,P17*
X20938271Y-11723312D02*
X20938271Y-11623312D01*
X20938271Y-11623312D02*
X20976367Y-11623312D01*
X20976367Y-11623312D02*
X20985890Y-11628074D01*
X20985890Y-11628074D02*
X20990652Y-11632836D01*
X20990652Y-11632836D02*
X20995414Y-11642359D01*
X20995414Y-11642359D02*
X20995414Y-11656645D01*
X20995414Y-11656645D02*
X20990652Y-11666169D01*
X20990652Y-11666169D02*
X20985890Y-11670931D01*
X20985890Y-11670931D02*
X20976367Y-11675693D01*
X20976367Y-11675693D02*
X20938271Y-11675693D01*
X21090652Y-11723312D02*
X21033510Y-11723312D01*
X21062081Y-11723312D02*
X21062081Y-11623312D01*
X21062081Y-11623312D02*
X21052557Y-11637598D01*
X21052557Y-11637598D02*
X21043033Y-11647121D01*
X21043033Y-11647121D02*
X21033510Y-11651883D01*
X21123986Y-11623312D02*
X21190652Y-11623312D01*
X21190652Y-11623312D02*
X21147795Y-11723312D01*
G04 #@! TO.C,P13*
X15888271Y-16773312D02*
X15888271Y-16673312D01*
X15888271Y-16673312D02*
X15926367Y-16673312D01*
X15926367Y-16673312D02*
X15935890Y-16678074D01*
X15935890Y-16678074D02*
X15940652Y-16682836D01*
X15940652Y-16682836D02*
X15945414Y-16692359D01*
X15945414Y-16692359D02*
X15945414Y-16706645D01*
X15945414Y-16706645D02*
X15940652Y-16716169D01*
X15940652Y-16716169D02*
X15935890Y-16720931D01*
X15935890Y-16720931D02*
X15926367Y-16725693D01*
X15926367Y-16725693D02*
X15888271Y-16725693D01*
X16040652Y-16773312D02*
X15983509Y-16773312D01*
X16012081Y-16773312D02*
X16012081Y-16673312D01*
X16012081Y-16673312D02*
X16002557Y-16687598D01*
X16002557Y-16687598D02*
X15993033Y-16697121D01*
X15993033Y-16697121D02*
X15983509Y-16701883D01*
X16073986Y-16673312D02*
X16135890Y-16673312D01*
X16135890Y-16673312D02*
X16102557Y-16711407D01*
X16102557Y-16711407D02*
X16116843Y-16711407D01*
X16116843Y-16711407D02*
X16126367Y-16716169D01*
X16126367Y-16716169D02*
X16131128Y-16720931D01*
X16131128Y-16720931D02*
X16135890Y-16730455D01*
X16135890Y-16730455D02*
X16135890Y-16754264D01*
X16135890Y-16754264D02*
X16131128Y-16763788D01*
X16131128Y-16763788D02*
X16126367Y-16768550D01*
X16126367Y-16768550D02*
X16116843Y-16773312D01*
X16116843Y-16773312D02*
X16088271Y-16773312D01*
X16088271Y-16773312D02*
X16078748Y-16768550D01*
X16078748Y-16768550D02*
X16073986Y-16763788D01*
G04 #@! TO.C,P12*
X15888271Y-11723312D02*
X15888271Y-11623312D01*
X15888271Y-11623312D02*
X15926367Y-11623312D01*
X15926367Y-11623312D02*
X15935890Y-11628074D01*
X15935890Y-11628074D02*
X15940652Y-11632836D01*
X15940652Y-11632836D02*
X15945414Y-11642359D01*
X15945414Y-11642359D02*
X15945414Y-11656645D01*
X15945414Y-11656645D02*
X15940652Y-11666169D01*
X15940652Y-11666169D02*
X15935890Y-11670931D01*
X15935890Y-11670931D02*
X15926367Y-11675693D01*
X15926367Y-11675693D02*
X15888271Y-11675693D01*
X16040652Y-11723312D02*
X15983509Y-11723312D01*
X16012081Y-11723312D02*
X16012081Y-11623312D01*
X16012081Y-11623312D02*
X16002557Y-11637598D01*
X16002557Y-11637598D02*
X15993033Y-11647121D01*
X15993033Y-11647121D02*
X15983509Y-11651883D01*
X16078748Y-11632836D02*
X16083509Y-11628074D01*
X16083509Y-11628074D02*
X16093033Y-11623312D01*
X16093033Y-11623312D02*
X16116843Y-11623312D01*
X16116843Y-11623312D02*
X16126367Y-11628074D01*
X16126367Y-11628074D02*
X16131128Y-11632836D01*
X16131128Y-11632836D02*
X16135890Y-11642359D01*
X16135890Y-11642359D02*
X16135890Y-11651883D01*
X16135890Y-11651883D02*
X16131128Y-11666169D01*
X16131128Y-11666169D02*
X16073986Y-11723312D01*
X16073986Y-11723312D02*
X16135890Y-11723312D01*
G04 #@! TO.C,P14*
X18388271Y-9173312D02*
X18388271Y-9073312D01*
X18388271Y-9073312D02*
X18426367Y-9073312D01*
X18426367Y-9073312D02*
X18435890Y-9078074D01*
X18435890Y-9078074D02*
X18440652Y-9082836D01*
X18440652Y-9082836D02*
X18445414Y-9092360D01*
X18445414Y-9092360D02*
X18445414Y-9106645D01*
X18445414Y-9106645D02*
X18440652Y-9116169D01*
X18440652Y-9116169D02*
X18435890Y-9120931D01*
X18435890Y-9120931D02*
X18426367Y-9125693D01*
X18426367Y-9125693D02*
X18388271Y-9125693D01*
X18540652Y-9173312D02*
X18483510Y-9173312D01*
X18512081Y-9173312D02*
X18512081Y-9073312D01*
X18512081Y-9073312D02*
X18502557Y-9087598D01*
X18502557Y-9087598D02*
X18493033Y-9097121D01*
X18493033Y-9097121D02*
X18483510Y-9101883D01*
X18626367Y-9106645D02*
X18626367Y-9173312D01*
X18602557Y-9068550D02*
X18578748Y-9139979D01*
X18578748Y-9139979D02*
X18640652Y-9139979D01*
G04 #@! TO.C,P7*
X10885891Y-11723312D02*
X10885891Y-11623312D01*
X10885891Y-11623312D02*
X10923986Y-11623312D01*
X10923986Y-11623312D02*
X10933510Y-11628074D01*
X10933510Y-11628074D02*
X10938271Y-11632836D01*
X10938271Y-11632836D02*
X10943033Y-11642359D01*
X10943033Y-11642359D02*
X10943033Y-11656645D01*
X10943033Y-11656645D02*
X10938271Y-11666169D01*
X10938271Y-11666169D02*
X10933510Y-11670931D01*
X10933510Y-11670931D02*
X10923986Y-11675693D01*
X10923986Y-11675693D02*
X10885891Y-11675693D01*
X10976367Y-11623312D02*
X11043033Y-11623312D01*
X11043033Y-11623312D02*
X11000176Y-11723312D01*
G04 #@! TO.C,P16*
X20938271Y-6673312D02*
X20938271Y-6573312D01*
X20938271Y-6573312D02*
X20976367Y-6573312D01*
X20976367Y-6573312D02*
X20985890Y-6578074D01*
X20985890Y-6578074D02*
X20990652Y-6582836D01*
X20990652Y-6582836D02*
X20995414Y-6592359D01*
X20995414Y-6592359D02*
X20995414Y-6606645D01*
X20995414Y-6606645D02*
X20990652Y-6616169D01*
X20990652Y-6616169D02*
X20985890Y-6620931D01*
X20985890Y-6620931D02*
X20976367Y-6625693D01*
X20976367Y-6625693D02*
X20938271Y-6625693D01*
X21090652Y-6673312D02*
X21033510Y-6673312D01*
X21062081Y-6673312D02*
X21062081Y-6573312D01*
X21062081Y-6573312D02*
X21052557Y-6587598D01*
X21052557Y-6587598D02*
X21043033Y-6597121D01*
X21043033Y-6597121D02*
X21033510Y-6601883D01*
X21176367Y-6573312D02*
X21157319Y-6573312D01*
X21157319Y-6573312D02*
X21147795Y-6578074D01*
X21147795Y-6578074D02*
X21143033Y-6582836D01*
X21143033Y-6582836D02*
X21133510Y-6597121D01*
X21133510Y-6597121D02*
X21128748Y-6616169D01*
X21128748Y-6616169D02*
X21128748Y-6654264D01*
X21128748Y-6654264D02*
X21133510Y-6663788D01*
X21133510Y-6663788D02*
X21138271Y-6668550D01*
X21138271Y-6668550D02*
X21147795Y-6673312D01*
X21147795Y-6673312D02*
X21166843Y-6673312D01*
X21166843Y-6673312D02*
X21176367Y-6668550D01*
X21176367Y-6668550D02*
X21181129Y-6663788D01*
X21181129Y-6663788D02*
X21185890Y-6654264D01*
X21185890Y-6654264D02*
X21185890Y-6630455D01*
X21185890Y-6630455D02*
X21181129Y-6620931D01*
X21181129Y-6620931D02*
X21176367Y-6616169D01*
X21176367Y-6616169D02*
X21166843Y-6611407D01*
X21166843Y-6611407D02*
X21147795Y-6611407D01*
X21147795Y-6611407D02*
X21138271Y-6616169D01*
X21138271Y-6616169D02*
X21133510Y-6620931D01*
X21133510Y-6620931D02*
X21128748Y-6630455D01*
G04 #@! TO.C,J1*
X25046667Y-3617262D02*
X25046667Y-3688690D01*
X25046667Y-3688690D02*
X25041905Y-3702976D01*
X25041905Y-3702976D02*
X25032381Y-3712500D01*
X25032381Y-3712500D02*
X25018095Y-3717262D01*
X25018095Y-3717262D02*
X25008571Y-3717262D01*
X25146667Y-3717262D02*
X25089524Y-3717262D01*
X25118095Y-3717262D02*
X25118095Y-3617262D01*
X25118095Y-3617262D02*
X25108571Y-3631548D01*
X25108571Y-3631548D02*
X25099048Y-3641071D01*
X25099048Y-3641071D02*
X25089524Y-3645833D01*
X25334000Y-2718292D02*
X25334000Y-2742101D01*
X25310190Y-2732578D02*
X25334000Y-2742101D01*
X25334000Y-2742101D02*
X25357809Y-2732578D01*
X25319714Y-2761149D02*
X25334000Y-2742101D01*
X25334000Y-2742101D02*
X25348286Y-2761149D01*
G04 #@! TO.C,P15*
X18388271Y-14223312D02*
X18388271Y-14123312D01*
X18388271Y-14123312D02*
X18426367Y-14123312D01*
X18426367Y-14123312D02*
X18435890Y-14128074D01*
X18435890Y-14128074D02*
X18440652Y-14132836D01*
X18440652Y-14132836D02*
X18445414Y-14142359D01*
X18445414Y-14142359D02*
X18445414Y-14156645D01*
X18445414Y-14156645D02*
X18440652Y-14166169D01*
X18440652Y-14166169D02*
X18435890Y-14170931D01*
X18435890Y-14170931D02*
X18426367Y-14175693D01*
X18426367Y-14175693D02*
X18388271Y-14175693D01*
X18540652Y-14223312D02*
X18483510Y-14223312D01*
X18512081Y-14223312D02*
X18512081Y-14123312D01*
X18512081Y-14123312D02*
X18502557Y-14137598D01*
X18502557Y-14137598D02*
X18493033Y-14147121D01*
X18493033Y-14147121D02*
X18483510Y-14151883D01*
X18631129Y-14123312D02*
X18583510Y-14123312D01*
X18583510Y-14123312D02*
X18578748Y-14170931D01*
X18578748Y-14170931D02*
X18583510Y-14166169D01*
X18583510Y-14166169D02*
X18593033Y-14161407D01*
X18593033Y-14161407D02*
X18616843Y-14161407D01*
X18616843Y-14161407D02*
X18626367Y-14166169D01*
X18626367Y-14166169D02*
X18631129Y-14170931D01*
X18631129Y-14170931D02*
X18635890Y-14180455D01*
X18635890Y-14180455D02*
X18635890Y-14204264D01*
X18635890Y-14204264D02*
X18631129Y-14213788D01*
X18631129Y-14213788D02*
X18626367Y-14218550D01*
X18626367Y-14218550D02*
X18616843Y-14223312D01*
X18616843Y-14223312D02*
X18593033Y-14223312D01*
X18593033Y-14223312D02*
X18583510Y-14218550D01*
X18583510Y-14218550D02*
X18578748Y-14213788D01*
G04 #@! TO.C,P8*
X10885891Y-16773312D02*
X10885891Y-16673312D01*
X10885891Y-16673312D02*
X10923986Y-16673312D01*
X10923986Y-16673312D02*
X10933510Y-16678074D01*
X10933510Y-16678074D02*
X10938271Y-16682836D01*
X10938271Y-16682836D02*
X10943033Y-16692359D01*
X10943033Y-16692359D02*
X10943033Y-16706645D01*
X10943033Y-16706645D02*
X10938271Y-16716169D01*
X10938271Y-16716169D02*
X10933510Y-16720931D01*
X10933510Y-16720931D02*
X10923986Y-16725693D01*
X10923986Y-16725693D02*
X10885891Y-16725693D01*
X11000176Y-16716169D02*
X10990652Y-16711407D01*
X10990652Y-16711407D02*
X10985891Y-16706645D01*
X10985891Y-16706645D02*
X10981129Y-16697121D01*
X10981129Y-16697121D02*
X10981129Y-16692359D01*
X10981129Y-16692359D02*
X10985891Y-16682836D01*
X10985891Y-16682836D02*
X10990652Y-16678074D01*
X10990652Y-16678074D02*
X11000176Y-16673312D01*
X11000176Y-16673312D02*
X11019224Y-16673312D01*
X11019224Y-16673312D02*
X11028748Y-16678074D01*
X11028748Y-16678074D02*
X11033510Y-16682836D01*
X11033510Y-16682836D02*
X11038271Y-16692359D01*
X11038271Y-16692359D02*
X11038271Y-16697121D01*
X11038271Y-16697121D02*
X11033510Y-16706645D01*
X11033510Y-16706645D02*
X11028748Y-16711407D01*
X11028748Y-16711407D02*
X11019224Y-16716169D01*
X11019224Y-16716169D02*
X11000176Y-16716169D01*
X11000176Y-16716169D02*
X10990652Y-16720931D01*
X10990652Y-16720931D02*
X10985891Y-16725693D01*
X10985891Y-16725693D02*
X10981129Y-16735217D01*
X10981129Y-16735217D02*
X10981129Y-16754264D01*
X10981129Y-16754264D02*
X10985891Y-16763788D01*
X10985891Y-16763788D02*
X10990652Y-16768550D01*
X10990652Y-16768550D02*
X11000176Y-16773312D01*
X11000176Y-16773312D02*
X11019224Y-16773312D01*
X11019224Y-16773312D02*
X11028748Y-16768550D01*
X11028748Y-16768550D02*
X11033510Y-16763788D01*
X11033510Y-16763788D02*
X11038271Y-16754264D01*
X11038271Y-16754264D02*
X11038271Y-16735217D01*
X11038271Y-16735217D02*
X11033510Y-16725693D01*
X11033510Y-16725693D02*
X11028748Y-16720931D01*
X11028748Y-16720931D02*
X11019224Y-16716169D01*
G04 #@! TO.C,*
G04 #@! TO.C,M1*
X2393048Y-2558262D02*
X2393048Y-2458262D01*
X2393048Y-2458262D02*
X2426381Y-2529690D01*
X2426381Y-2529690D02*
X2459714Y-2458262D01*
X2459714Y-2458262D02*
X2459714Y-2558262D01*
X2559714Y-2558262D02*
X2502571Y-2558262D01*
X2531143Y-2558262D02*
X2531143Y-2458262D01*
X2531143Y-2458262D02*
X2521619Y-2472548D01*
X2521619Y-2472548D02*
X2512095Y-2482071D01*
X2512095Y-2482071D02*
X2502571Y-2486833D01*
G04 #@! TO.C,M2*
X26080048Y-2558262D02*
X26080048Y-2458262D01*
X26080048Y-2458262D02*
X26113381Y-2529690D01*
X26113381Y-2529690D02*
X26146714Y-2458262D01*
X26146714Y-2458262D02*
X26146714Y-2558262D01*
X26189571Y-2467786D02*
X26194333Y-2463024D01*
X26194333Y-2463024D02*
X26203857Y-2458262D01*
X26203857Y-2458262D02*
X26227667Y-2458262D01*
X26227667Y-2458262D02*
X26237190Y-2463024D01*
X26237190Y-2463024D02*
X26241952Y-2467786D01*
X26241952Y-2467786D02*
X26246714Y-2477310D01*
X26246714Y-2477310D02*
X26246714Y-2486833D01*
X26246714Y-2486833D02*
X26241952Y-2501119D01*
X26241952Y-2501119D02*
X26184809Y-2558262D01*
X26184809Y-2558262D02*
X26246714Y-2558262D01*
G04 #@! TO.C,M4*
X26080048Y-19043262D02*
X26080048Y-18943262D01*
X26080048Y-18943262D02*
X26113381Y-19014690D01*
X26113381Y-19014690D02*
X26146714Y-18943262D01*
X26146714Y-18943262D02*
X26146714Y-19043262D01*
X26237190Y-18976595D02*
X26237190Y-19043262D01*
X26213381Y-18938500D02*
X26189571Y-19009929D01*
X26189571Y-19009929D02*
X26251476Y-19009929D01*
G04 #@! TO.C,P19*
X23438271Y-9173312D02*
X23438271Y-9073312D01*
X23438271Y-9073312D02*
X23476367Y-9073312D01*
X23476367Y-9073312D02*
X23485890Y-9078074D01*
X23485890Y-9078074D02*
X23490652Y-9082836D01*
X23490652Y-9082836D02*
X23495414Y-9092360D01*
X23495414Y-9092360D02*
X23495414Y-9106645D01*
X23495414Y-9106645D02*
X23490652Y-9116169D01*
X23490652Y-9116169D02*
X23485890Y-9120931D01*
X23485890Y-9120931D02*
X23476367Y-9125693D01*
X23476367Y-9125693D02*
X23438271Y-9125693D01*
X23590652Y-9173312D02*
X23533509Y-9173312D01*
X23562081Y-9173312D02*
X23562081Y-9073312D01*
X23562081Y-9073312D02*
X23552557Y-9087598D01*
X23552557Y-9087598D02*
X23543033Y-9097121D01*
X23543033Y-9097121D02*
X23533509Y-9101883D01*
X23638271Y-9173312D02*
X23657319Y-9173312D01*
X23657319Y-9173312D02*
X23666843Y-9168550D01*
X23666843Y-9168550D02*
X23671605Y-9163788D01*
X23671605Y-9163788D02*
X23681128Y-9149502D01*
X23681128Y-9149502D02*
X23685890Y-9130455D01*
X23685890Y-9130455D02*
X23685890Y-9092360D01*
X23685890Y-9092360D02*
X23681128Y-9082836D01*
X23681128Y-9082836D02*
X23676367Y-9078074D01*
X23676367Y-9078074D02*
X23666843Y-9073312D01*
X23666843Y-9073312D02*
X23647795Y-9073312D01*
X23647795Y-9073312D02*
X23638271Y-9078074D01*
X23638271Y-9078074D02*
X23633509Y-9082836D01*
X23633509Y-9082836D02*
X23628748Y-9092360D01*
X23628748Y-9092360D02*
X23628748Y-9116169D01*
X23628748Y-9116169D02*
X23633509Y-9125693D01*
X23633509Y-9125693D02*
X23638271Y-9130455D01*
X23638271Y-9130455D02*
X23647795Y-9135217D01*
X23647795Y-9135217D02*
X23666843Y-9135217D01*
X23666843Y-9135217D02*
X23676367Y-9130455D01*
X23676367Y-9130455D02*
X23681128Y-9125693D01*
X23681128Y-9125693D02*
X23685890Y-9116169D01*
G04 #@! TO.C,R_LED1*
X24170738Y-2903524D02*
X24218357Y-2870190D01*
X24170738Y-2846381D02*
X24270738Y-2846381D01*
X24270738Y-2846381D02*
X24270738Y-2884476D01*
X24270738Y-2884476D02*
X24265976Y-2894000D01*
X24265976Y-2894000D02*
X24261214Y-2898762D01*
X24261214Y-2898762D02*
X24251690Y-2903524D01*
X24251690Y-2903524D02*
X24237405Y-2903524D01*
X24237405Y-2903524D02*
X24227881Y-2898762D01*
X24227881Y-2898762D02*
X24223119Y-2894000D01*
X24223119Y-2894000D02*
X24218357Y-2884476D01*
X24218357Y-2884476D02*
X24218357Y-2846381D01*
X24161214Y-2922571D02*
X24161214Y-2998762D01*
X24170738Y-3070190D02*
X24170738Y-3022571D01*
X24170738Y-3022571D02*
X24270738Y-3022571D01*
X24223119Y-3103524D02*
X24223119Y-3136857D01*
X24170738Y-3151143D02*
X24170738Y-3103524D01*
X24170738Y-3103524D02*
X24270738Y-3103524D01*
X24270738Y-3103524D02*
X24270738Y-3151143D01*
X24170738Y-3194000D02*
X24270738Y-3194000D01*
X24270738Y-3194000D02*
X24270738Y-3217809D01*
X24270738Y-3217809D02*
X24265976Y-3232095D01*
X24265976Y-3232095D02*
X24256452Y-3241619D01*
X24256452Y-3241619D02*
X24246928Y-3246381D01*
X24246928Y-3246381D02*
X24227881Y-3251143D01*
X24227881Y-3251143D02*
X24213595Y-3251143D01*
X24213595Y-3251143D02*
X24194548Y-3246381D01*
X24194548Y-3246381D02*
X24185024Y-3241619D01*
X24185024Y-3241619D02*
X24175500Y-3232095D01*
X24175500Y-3232095D02*
X24170738Y-3217809D01*
X24170738Y-3217809D02*
X24170738Y-3194000D01*
X24170738Y-3346381D02*
X24170738Y-3289238D01*
X24170738Y-3317809D02*
X24270738Y-3317809D01*
X24270738Y-3317809D02*
X24256452Y-3308286D01*
X24256452Y-3308286D02*
X24246928Y-3298762D01*
X24246928Y-3298762D02*
X24242167Y-3289238D01*
G04 #@! TO.C,P5*
X8335890Y-14223312D02*
X8335890Y-14123312D01*
X8335890Y-14123312D02*
X8373986Y-14123312D01*
X8373986Y-14123312D02*
X8383509Y-14128074D01*
X8383509Y-14128074D02*
X8388271Y-14132836D01*
X8388271Y-14132836D02*
X8393033Y-14142359D01*
X8393033Y-14142359D02*
X8393033Y-14156645D01*
X8393033Y-14156645D02*
X8388271Y-14166169D01*
X8388271Y-14166169D02*
X8383509Y-14170931D01*
X8383509Y-14170931D02*
X8373986Y-14175693D01*
X8373986Y-14175693D02*
X8335890Y-14175693D01*
X8483510Y-14123312D02*
X8435891Y-14123312D01*
X8435891Y-14123312D02*
X8431129Y-14170931D01*
X8431129Y-14170931D02*
X8435891Y-14166169D01*
X8435891Y-14166169D02*
X8445414Y-14161407D01*
X8445414Y-14161407D02*
X8469224Y-14161407D01*
X8469224Y-14161407D02*
X8478748Y-14166169D01*
X8478748Y-14166169D02*
X8483510Y-14170931D01*
X8483510Y-14170931D02*
X8488271Y-14180455D01*
X8488271Y-14180455D02*
X8488271Y-14204264D01*
X8488271Y-14204264D02*
X8483510Y-14213788D01*
X8483510Y-14213788D02*
X8478748Y-14218550D01*
X8478748Y-14218550D02*
X8469224Y-14223312D01*
X8469224Y-14223312D02*
X8445414Y-14223312D01*
X8445414Y-14223312D02*
X8435891Y-14218550D01*
X8435891Y-14218550D02*
X8431129Y-14213788D01*
G04 #@! TO.C,P10*
X13338271Y-14223312D02*
X13338271Y-14123312D01*
X13338271Y-14123312D02*
X13376367Y-14123312D01*
X13376367Y-14123312D02*
X13385890Y-14128074D01*
X13385890Y-14128074D02*
X13390652Y-14132836D01*
X13390652Y-14132836D02*
X13395414Y-14142359D01*
X13395414Y-14142359D02*
X13395414Y-14156645D01*
X13395414Y-14156645D02*
X13390652Y-14166169D01*
X13390652Y-14166169D02*
X13385890Y-14170931D01*
X13385890Y-14170931D02*
X13376367Y-14175693D01*
X13376367Y-14175693D02*
X13338271Y-14175693D01*
X13490652Y-14223312D02*
X13433509Y-14223312D01*
X13462081Y-14223312D02*
X13462081Y-14123312D01*
X13462081Y-14123312D02*
X13452557Y-14137598D01*
X13452557Y-14137598D02*
X13443033Y-14147121D01*
X13443033Y-14147121D02*
X13433509Y-14151883D01*
X13552557Y-14123312D02*
X13562081Y-14123312D01*
X13562081Y-14123312D02*
X13571605Y-14128074D01*
X13571605Y-14128074D02*
X13576367Y-14132836D01*
X13576367Y-14132836D02*
X13581128Y-14142359D01*
X13581128Y-14142359D02*
X13585890Y-14161407D01*
X13585890Y-14161407D02*
X13585890Y-14185217D01*
X13585890Y-14185217D02*
X13581128Y-14204264D01*
X13581128Y-14204264D02*
X13576367Y-14213788D01*
X13576367Y-14213788D02*
X13571605Y-14218550D01*
X13571605Y-14218550D02*
X13562081Y-14223312D01*
X13562081Y-14223312D02*
X13552557Y-14223312D01*
X13552557Y-14223312D02*
X13543033Y-14218550D01*
X13543033Y-14218550D02*
X13538271Y-14213788D01*
X13538271Y-14213788D02*
X13533509Y-14204264D01*
X13533509Y-14204264D02*
X13528748Y-14185217D01*
X13528748Y-14185217D02*
X13528748Y-14161407D01*
X13528748Y-14161407D02*
X13533509Y-14142359D01*
X13533509Y-14142359D02*
X13538271Y-14132836D01*
X13538271Y-14132836D02*
X13543033Y-14128074D01*
X13543033Y-14128074D02*
X13552557Y-14123312D01*
G04 #@! TO.C,P3*
X5835890Y-16773312D02*
X5835890Y-16673312D01*
X5835890Y-16673312D02*
X5873986Y-16673312D01*
X5873986Y-16673312D02*
X5883509Y-16678074D01*
X5883509Y-16678074D02*
X5888271Y-16682836D01*
X5888271Y-16682836D02*
X5893033Y-16692359D01*
X5893033Y-16692359D02*
X5893033Y-16706645D01*
X5893033Y-16706645D02*
X5888271Y-16716169D01*
X5888271Y-16716169D02*
X5883509Y-16720931D01*
X5883509Y-16720931D02*
X5873986Y-16725693D01*
X5873986Y-16725693D02*
X5835890Y-16725693D01*
X5926367Y-16673312D02*
X5988271Y-16673312D01*
X5988271Y-16673312D02*
X5954938Y-16711407D01*
X5954938Y-16711407D02*
X5969224Y-16711407D01*
X5969224Y-16711407D02*
X5978748Y-16716169D01*
X5978748Y-16716169D02*
X5983509Y-16720931D01*
X5983509Y-16720931D02*
X5988271Y-16730455D01*
X5988271Y-16730455D02*
X5988271Y-16754264D01*
X5988271Y-16754264D02*
X5983509Y-16763788D01*
X5983509Y-16763788D02*
X5978748Y-16768550D01*
X5978748Y-16768550D02*
X5969224Y-16773312D01*
X5969224Y-16773312D02*
X5940652Y-16773312D01*
X5940652Y-16773312D02*
X5931129Y-16768550D01*
X5931129Y-16768550D02*
X5926367Y-16763788D01*
G04 #@! TO.C,LED1*
X24241262Y-2634905D02*
X24241262Y-2682524D01*
X24241262Y-2682524D02*
X24141262Y-2682524D01*
X24188881Y-2601571D02*
X24188881Y-2568238D01*
X24241262Y-2553952D02*
X24241262Y-2601571D01*
X24241262Y-2601571D02*
X24141262Y-2601571D01*
X24141262Y-2601571D02*
X24141262Y-2553952D01*
X24241262Y-2511095D02*
X24141262Y-2511095D01*
X24141262Y-2511095D02*
X24141262Y-2487286D01*
X24141262Y-2487286D02*
X24146024Y-2473000D01*
X24146024Y-2473000D02*
X24155548Y-2463476D01*
X24155548Y-2463476D02*
X24165071Y-2458714D01*
X24165071Y-2458714D02*
X24184119Y-2453952D01*
X24184119Y-2453952D02*
X24198405Y-2453952D01*
X24198405Y-2453952D02*
X24217452Y-2458714D01*
X24217452Y-2458714D02*
X24226976Y-2463476D01*
X24226976Y-2463476D02*
X24236500Y-2473000D01*
X24236500Y-2473000D02*
X24241262Y-2487286D01*
X24241262Y-2487286D02*
X24241262Y-2511095D01*
X24241262Y-2358714D02*
X24241262Y-2415857D01*
X24241262Y-2387286D02*
X24141262Y-2387286D01*
X24141262Y-2387286D02*
X24155548Y-2396809D01*
X24155548Y-2396809D02*
X24165071Y-2406333D01*
X24165071Y-2406333D02*
X24169833Y-2415857D01*
G04 #@! TO.C,P11*
X15888271Y-6673312D02*
X15888271Y-6573312D01*
X15888271Y-6573312D02*
X15926367Y-6573312D01*
X15926367Y-6573312D02*
X15935890Y-6578074D01*
X15935890Y-6578074D02*
X15940652Y-6582836D01*
X15940652Y-6582836D02*
X15945414Y-6592359D01*
X15945414Y-6592359D02*
X15945414Y-6606645D01*
X15945414Y-6606645D02*
X15940652Y-6616169D01*
X15940652Y-6616169D02*
X15935890Y-6620931D01*
X15935890Y-6620931D02*
X15926367Y-6625693D01*
X15926367Y-6625693D02*
X15888271Y-6625693D01*
X16040652Y-6673312D02*
X15983509Y-6673312D01*
X16012081Y-6673312D02*
X16012081Y-6573312D01*
X16012081Y-6573312D02*
X16002557Y-6587598D01*
X16002557Y-6587598D02*
X15993033Y-6597121D01*
X15993033Y-6597121D02*
X15983509Y-6601883D01*
X16135890Y-6673312D02*
X16078748Y-6673312D01*
X16107319Y-6673312D02*
X16107319Y-6573312D01*
X16107319Y-6573312D02*
X16097795Y-6587598D01*
X16097795Y-6587598D02*
X16088271Y-6597121D01*
X16088271Y-6597121D02*
X16078748Y-6601883D01*
G04 #@! TO.C,P18*
X20938271Y-16773312D02*
X20938271Y-16673312D01*
X20938271Y-16673312D02*
X20976367Y-16673312D01*
X20976367Y-16673312D02*
X20985890Y-16678074D01*
X20985890Y-16678074D02*
X20990652Y-16682836D01*
X20990652Y-16682836D02*
X20995414Y-16692359D01*
X20995414Y-16692359D02*
X20995414Y-16706645D01*
X20995414Y-16706645D02*
X20990652Y-16716169D01*
X20990652Y-16716169D02*
X20985890Y-16720931D01*
X20985890Y-16720931D02*
X20976367Y-16725693D01*
X20976367Y-16725693D02*
X20938271Y-16725693D01*
X21090652Y-16773312D02*
X21033510Y-16773312D01*
X21062081Y-16773312D02*
X21062081Y-16673312D01*
X21062081Y-16673312D02*
X21052557Y-16687598D01*
X21052557Y-16687598D02*
X21043033Y-16697121D01*
X21043033Y-16697121D02*
X21033510Y-16701883D01*
X21147795Y-16716169D02*
X21138271Y-16711407D01*
X21138271Y-16711407D02*
X21133510Y-16706645D01*
X21133510Y-16706645D02*
X21128748Y-16697121D01*
X21128748Y-16697121D02*
X21128748Y-16692359D01*
X21128748Y-16692359D02*
X21133510Y-16682836D01*
X21133510Y-16682836D02*
X21138271Y-16678074D01*
X21138271Y-16678074D02*
X21147795Y-16673312D01*
X21147795Y-16673312D02*
X21166843Y-16673312D01*
X21166843Y-16673312D02*
X21176367Y-16678074D01*
X21176367Y-16678074D02*
X21181129Y-16682836D01*
X21181129Y-16682836D02*
X21185890Y-16692359D01*
X21185890Y-16692359D02*
X21185890Y-16697121D01*
X21185890Y-16697121D02*
X21181129Y-16706645D01*
X21181129Y-16706645D02*
X21176367Y-16711407D01*
X21176367Y-16711407D02*
X21166843Y-16716169D01*
X21166843Y-16716169D02*
X21147795Y-16716169D01*
X21147795Y-16716169D02*
X21138271Y-16720931D01*
X21138271Y-16720931D02*
X21133510Y-16725693D01*
X21133510Y-16725693D02*
X21128748Y-16735217D01*
X21128748Y-16735217D02*
X21128748Y-16754264D01*
X21128748Y-16754264D02*
X21133510Y-16763788D01*
X21133510Y-16763788D02*
X21138271Y-16768550D01*
X21138271Y-16768550D02*
X21147795Y-16773312D01*
X21147795Y-16773312D02*
X21166843Y-16773312D01*
X21166843Y-16773312D02*
X21176367Y-16768550D01*
X21176367Y-16768550D02*
X21181129Y-16763788D01*
X21181129Y-16763788D02*
X21185890Y-16754264D01*
X21185890Y-16754264D02*
X21185890Y-16735217D01*
X21185890Y-16735217D02*
X21181129Y-16725693D01*
X21181129Y-16725693D02*
X21176367Y-16720931D01*
X21176367Y-16720931D02*
X21166843Y-16716169D01*
G04 #@! TO.C,P1*
X5835890Y-6673312D02*
X5835890Y-6573312D01*
X5835890Y-6573312D02*
X5873986Y-6573312D01*
X5873986Y-6573312D02*
X5883509Y-6578074D01*
X5883509Y-6578074D02*
X5888271Y-6582836D01*
X5888271Y-6582836D02*
X5893033Y-6592359D01*
X5893033Y-6592359D02*
X5893033Y-6606645D01*
X5893033Y-6606645D02*
X5888271Y-6616169D01*
X5888271Y-6616169D02*
X5883509Y-6620931D01*
X5883509Y-6620931D02*
X5873986Y-6625693D01*
X5873986Y-6625693D02*
X5835890Y-6625693D01*
X5988271Y-6673312D02*
X5931129Y-6673312D01*
X5959700Y-6673312D02*
X5959700Y-6573312D01*
X5959700Y-6573312D02*
X5950176Y-6587598D01*
X5950176Y-6587598D02*
X5940652Y-6597121D01*
X5940652Y-6597121D02*
X5931129Y-6601883D01*
G04 #@! TO.C,P2*
X5835890Y-11723312D02*
X5835890Y-11623312D01*
X5835890Y-11623312D02*
X5873986Y-11623312D01*
X5873986Y-11623312D02*
X5883509Y-11628074D01*
X5883509Y-11628074D02*
X5888271Y-11632836D01*
X5888271Y-11632836D02*
X5893033Y-11642359D01*
X5893033Y-11642359D02*
X5893033Y-11656645D01*
X5893033Y-11656645D02*
X5888271Y-11666169D01*
X5888271Y-11666169D02*
X5883509Y-11670931D01*
X5883509Y-11670931D02*
X5873986Y-11675693D01*
X5873986Y-11675693D02*
X5835890Y-11675693D01*
X5931129Y-11632836D02*
X5935890Y-11628074D01*
X5935890Y-11628074D02*
X5945414Y-11623312D01*
X5945414Y-11623312D02*
X5969224Y-11623312D01*
X5969224Y-11623312D02*
X5978748Y-11628074D01*
X5978748Y-11628074D02*
X5983509Y-11632836D01*
X5983509Y-11632836D02*
X5988271Y-11642359D01*
X5988271Y-11642359D02*
X5988271Y-11651883D01*
X5988271Y-11651883D02*
X5983509Y-11666169D01*
X5983509Y-11666169D02*
X5926367Y-11723312D01*
X5926367Y-11723312D02*
X5988271Y-11723312D01*
G04 #@! TO.C,J2*
X14581333Y-2780738D02*
X14581333Y-2709310D01*
X14581333Y-2709310D02*
X14586095Y-2695024D01*
X14586095Y-2695024D02*
X14595619Y-2685500D01*
X14595619Y-2685500D02*
X14609905Y-2680738D01*
X14609905Y-2680738D02*
X14619428Y-2680738D01*
X14538476Y-2771214D02*
X14533714Y-2775976D01*
X14533714Y-2775976D02*
X14524190Y-2780738D01*
X14524190Y-2780738D02*
X14500381Y-2780738D01*
X14500381Y-2780738D02*
X14490857Y-2775976D01*
X14490857Y-2775976D02*
X14486095Y-2771214D01*
X14486095Y-2771214D02*
X14481333Y-2761690D01*
X14481333Y-2761690D02*
X14481333Y-2752167D01*
X14481333Y-2752167D02*
X14486095Y-2737881D01*
X14486095Y-2737881D02*
X14543238Y-2680738D01*
X14543238Y-2680738D02*
X14481333Y-2680738D01*
G04 #@! TO.C,P6*
X10885891Y-6673312D02*
X10885891Y-6573312D01*
X10885891Y-6573312D02*
X10923986Y-6573312D01*
X10923986Y-6573312D02*
X10933510Y-6578074D01*
X10933510Y-6578074D02*
X10938271Y-6582836D01*
X10938271Y-6582836D02*
X10943033Y-6592359D01*
X10943033Y-6592359D02*
X10943033Y-6606645D01*
X10943033Y-6606645D02*
X10938271Y-6616169D01*
X10938271Y-6616169D02*
X10933510Y-6620931D01*
X10933510Y-6620931D02*
X10923986Y-6625693D01*
X10923986Y-6625693D02*
X10885891Y-6625693D01*
X11028748Y-6573312D02*
X11009700Y-6573312D01*
X11009700Y-6573312D02*
X11000176Y-6578074D01*
X11000176Y-6578074D02*
X10995414Y-6582836D01*
X10995414Y-6582836D02*
X10985891Y-6597121D01*
X10985891Y-6597121D02*
X10981129Y-6616169D01*
X10981129Y-6616169D02*
X10981129Y-6654264D01*
X10981129Y-6654264D02*
X10985891Y-6663788D01*
X10985891Y-6663788D02*
X10990652Y-6668550D01*
X10990652Y-6668550D02*
X11000176Y-6673312D01*
X11000176Y-6673312D02*
X11019224Y-6673312D01*
X11019224Y-6673312D02*
X11028748Y-6668550D01*
X11028748Y-6668550D02*
X11033510Y-6663788D01*
X11033510Y-6663788D02*
X11038271Y-6654264D01*
X11038271Y-6654264D02*
X11038271Y-6630455D01*
X11038271Y-6630455D02*
X11033510Y-6620931D01*
X11033510Y-6620931D02*
X11028748Y-6616169D01*
X11028748Y-6616169D02*
X11019224Y-6611407D01*
X11019224Y-6611407D02*
X11000176Y-6611407D01*
X11000176Y-6611407D02*
X10990652Y-6616169D01*
X10990652Y-6616169D02*
X10985891Y-6620931D01*
X10985891Y-6620931D02*
X10981129Y-6630455D01*
G04 #@! TO.C,P9*
X13385890Y-9173312D02*
X13385890Y-9073312D01*
X13385890Y-9073312D02*
X13423986Y-9073312D01*
X13423986Y-9073312D02*
X13433509Y-9078074D01*
X13433509Y-9078074D02*
X13438271Y-9082836D01*
X13438271Y-9082836D02*
X13443033Y-9092360D01*
X13443033Y-9092360D02*
X13443033Y-9106645D01*
X13443033Y-9106645D02*
X13438271Y-9116169D01*
X13438271Y-9116169D02*
X13433509Y-9120931D01*
X13433509Y-9120931D02*
X13423986Y-9125693D01*
X13423986Y-9125693D02*
X13385890Y-9125693D01*
X13490652Y-9173312D02*
X13509700Y-9173312D01*
X13509700Y-9173312D02*
X13519224Y-9168550D01*
X13519224Y-9168550D02*
X13523986Y-9163788D01*
X13523986Y-9163788D02*
X13533509Y-9149502D01*
X13533509Y-9149502D02*
X13538271Y-9130455D01*
X13538271Y-9130455D02*
X13538271Y-9092360D01*
X13538271Y-9092360D02*
X13533509Y-9082836D01*
X13533509Y-9082836D02*
X13528748Y-9078074D01*
X13528748Y-9078074D02*
X13519224Y-9073312D01*
X13519224Y-9073312D02*
X13500176Y-9073312D01*
X13500176Y-9073312D02*
X13490652Y-9078074D01*
X13490652Y-9078074D02*
X13485890Y-9082836D01*
X13485890Y-9082836D02*
X13481129Y-9092360D01*
X13481129Y-9092360D02*
X13481129Y-9116169D01*
X13481129Y-9116169D02*
X13485890Y-9125693D01*
X13485890Y-9125693D02*
X13490652Y-9130455D01*
X13490652Y-9130455D02*
X13500176Y-9135217D01*
X13500176Y-9135217D02*
X13519224Y-9135217D01*
X13519224Y-9135217D02*
X13528748Y-9130455D01*
X13528748Y-9130455D02*
X13533509Y-9125693D01*
X13533509Y-9125693D02*
X13538271Y-9116169D01*
G04 #@! TO.C,P20*
X23438271Y-14223312D02*
X23438271Y-14123312D01*
X23438271Y-14123312D02*
X23476367Y-14123312D01*
X23476367Y-14123312D02*
X23485890Y-14128074D01*
X23485890Y-14128074D02*
X23490652Y-14132836D01*
X23490652Y-14132836D02*
X23495414Y-14142359D01*
X23495414Y-14142359D02*
X23495414Y-14156645D01*
X23495414Y-14156645D02*
X23490652Y-14166169D01*
X23490652Y-14166169D02*
X23485890Y-14170931D01*
X23485890Y-14170931D02*
X23476367Y-14175693D01*
X23476367Y-14175693D02*
X23438271Y-14175693D01*
X23533509Y-14132836D02*
X23538271Y-14128074D01*
X23538271Y-14128074D02*
X23547795Y-14123312D01*
X23547795Y-14123312D02*
X23571605Y-14123312D01*
X23571605Y-14123312D02*
X23581128Y-14128074D01*
X23581128Y-14128074D02*
X23585890Y-14132836D01*
X23585890Y-14132836D02*
X23590652Y-14142359D01*
X23590652Y-14142359D02*
X23590652Y-14151883D01*
X23590652Y-14151883D02*
X23585890Y-14166169D01*
X23585890Y-14166169D02*
X23528748Y-14223312D01*
X23528748Y-14223312D02*
X23590652Y-14223312D01*
X23652557Y-14123312D02*
X23662081Y-14123312D01*
X23662081Y-14123312D02*
X23671605Y-14128074D01*
X23671605Y-14128074D02*
X23676367Y-14132836D01*
X23676367Y-14132836D02*
X23681128Y-14142359D01*
X23681128Y-14142359D02*
X23685890Y-14161407D01*
X23685890Y-14161407D02*
X23685890Y-14185217D01*
X23685890Y-14185217D02*
X23681128Y-14204264D01*
X23681128Y-14204264D02*
X23676367Y-14213788D01*
X23676367Y-14213788D02*
X23671605Y-14218550D01*
X23671605Y-14218550D02*
X23662081Y-14223312D01*
X23662081Y-14223312D02*
X23652557Y-14223312D01*
X23652557Y-14223312D02*
X23643033Y-14218550D01*
X23643033Y-14218550D02*
X23638271Y-14213788D01*
X23638271Y-14213788D02*
X23633509Y-14204264D01*
X23633509Y-14204264D02*
X23628748Y-14185217D01*
X23628748Y-14185217D02*
X23628748Y-14161407D01*
X23628748Y-14161407D02*
X23633509Y-14142359D01*
X23633509Y-14142359D02*
X23638271Y-14132836D01*
X23638271Y-14132836D02*
X23643033Y-14128074D01*
X23643033Y-14128074D02*
X23652557Y-14123312D01*
G04 #@! TO.C,P4*
X8335890Y-9173312D02*
X8335890Y-9073312D01*
X8335890Y-9073312D02*
X8373986Y-9073312D01*
X8373986Y-9073312D02*
X8383509Y-9078074D01*
X8383509Y-9078074D02*
X8388271Y-9082836D01*
X8388271Y-9082836D02*
X8393033Y-9092360D01*
X8393033Y-9092360D02*
X8393033Y-9106645D01*
X8393033Y-9106645D02*
X8388271Y-9116169D01*
X8388271Y-9116169D02*
X8383509Y-9120931D01*
X8383509Y-9120931D02*
X8373986Y-9125693D01*
X8373986Y-9125693D02*
X8335890Y-9125693D01*
X8478748Y-9106645D02*
X8478748Y-9173312D01*
X8454938Y-9068550D02*
X8431129Y-9139979D01*
X8431129Y-9139979D02*
X8493033Y-9139979D01*
G04 #@! TO.C,M3*
X2391048Y-19044262D02*
X2391048Y-18944262D01*
X2391048Y-18944262D02*
X2424381Y-19015690D01*
X2424381Y-19015690D02*
X2457714Y-18944262D01*
X2457714Y-18944262D02*
X2457714Y-19044262D01*
X2495810Y-18944262D02*
X2557714Y-18944262D01*
X2557714Y-18944262D02*
X2524381Y-18982357D01*
X2524381Y-18982357D02*
X2538667Y-18982357D01*
X2538667Y-18982357D02*
X2548190Y-18987119D01*
X2548190Y-18987119D02*
X2552952Y-18991881D01*
X2552952Y-18991881D02*
X2557714Y-19001405D01*
X2557714Y-19001405D02*
X2557714Y-19025214D01*
X2557714Y-19025214D02*
X2552952Y-19034738D01*
X2552952Y-19034738D02*
X2548190Y-19039500D01*
X2548190Y-19039500D02*
X2538667Y-19044262D01*
X2538667Y-19044262D02*
X2510095Y-19044262D01*
X2510095Y-19044262D02*
X2500571Y-19039500D01*
X2500571Y-19039500D02*
X2495810Y-19034738D01*
D12*
G04 #@! TO.C,J1*
X25570000Y-3521000D02*
X25570000Y-3391000D01*
X25540000Y-3491000D02*
X25340000Y-3491000D01*
X25540000Y-2041000D02*
X25540000Y-3491000D01*
X25400000Y-3521000D02*
X25570000Y-3521000D01*
X24820000Y-3491000D02*
X24620000Y-3491000D01*
X24620000Y-3491000D02*
X24620000Y-3361000D01*
X24620000Y-2901000D02*
X24620000Y-2041000D01*
X24620000Y-2041000D02*
X25540000Y-2041000D01*
D13*
G04 #@! TO.C,R_LED1*
X23931450Y-3062315D02*
X23931450Y-3120185D01*
X24096550Y-3120185D02*
X24096550Y-3062315D01*
G04 #@! TO.C,LED1*
X24068150Y-2537245D02*
X24068150Y-2509855D01*
X23953850Y-2509855D02*
X23953850Y-2537245D01*
G04 #@! TO.C,J2*
X18711060Y-3175310D02*
X18711060Y-2278690D01*
X18711060Y-2278690D02*
X10384940Y-2278690D01*
X10384940Y-3175310D02*
X18711060Y-3175310D01*
X10384940Y-2278690D02*
X10384940Y-3175310D01*
D14*
X18812660Y-2854000D02*
G75*
G03*
X18812660Y-2854000I-38100J0D01*
G01*
G04 #@! TD*
M02*
