%TF.GenerationSoftware,KiCad,Pcbnew,7.0.2*%
%TF.CreationDate,2023-08-30T10:53:34+01:00*%
%TF.ProjectId,Air quality project,41697220-7175-4616-9c69-74792070726f,rev?*%
%TF.SameCoordinates,Original*%
%TF.FileFunction,Drillmap*%
%TF.FilePolarity,Positive*%
%FSLAX45Y45*%
G04 Gerber Fmt 4.5, Leading zero omitted, Abs format (unit mm)*
G04 Created by KiCad (PCBNEW 7.0.2) date 2023-08-30 10:53:34*
%MOMM*%
%LPD*%
G01*
G04 APERTURE LIST*
%ADD10C,0.100000*%
%ADD11C,0.200000*%
%ADD12C,0.430000*%
G04 APERTURE END LIST*
D10*
X2000000Y-2000000D02*
X26650000Y-2000000D01*
X26650000Y-19450000D01*
X2000000Y-19450000D01*
X2000000Y-2000000D01*
D11*
D12*
X2264000Y-18754000D02*
X2694000Y-19184000D01*
X2694000Y-18754000D02*
X2264000Y-19184000D01*
X2266000Y-2268000D02*
X2696000Y-2698000D01*
X2696000Y-2268000D02*
X2266000Y-2698000D01*
X25953000Y-2268000D02*
X26383000Y-2698000D01*
X26383000Y-2268000D02*
X25953000Y-2698000D01*
X25953000Y-18753000D02*
X26383000Y-19183000D01*
X26383000Y-18753000D02*
X25953000Y-19183000D01*
D11*
X2242619Y-19767524D02*
X2242619Y-19567524D01*
X2242619Y-19567524D02*
X2290238Y-19567524D01*
X2290238Y-19567524D02*
X2318810Y-19577048D01*
X2318810Y-19577048D02*
X2337857Y-19596095D01*
X2337857Y-19596095D02*
X2347381Y-19615143D01*
X2347381Y-19615143D02*
X2356905Y-19653238D01*
X2356905Y-19653238D02*
X2356905Y-19681810D01*
X2356905Y-19681810D02*
X2347381Y-19719905D01*
X2347381Y-19719905D02*
X2337857Y-19738952D01*
X2337857Y-19738952D02*
X2318810Y-19758000D01*
X2318810Y-19758000D02*
X2290238Y-19767524D01*
X2290238Y-19767524D02*
X2242619Y-19767524D01*
X2442619Y-19767524D02*
X2442619Y-19634190D01*
X2442619Y-19672286D02*
X2452143Y-19653238D01*
X2452143Y-19653238D02*
X2461667Y-19643714D01*
X2461667Y-19643714D02*
X2480714Y-19634190D01*
X2480714Y-19634190D02*
X2499762Y-19634190D01*
X2566429Y-19767524D02*
X2566429Y-19634190D01*
X2566429Y-19567524D02*
X2556905Y-19577048D01*
X2556905Y-19577048D02*
X2566429Y-19586571D01*
X2566429Y-19586571D02*
X2575952Y-19577048D01*
X2575952Y-19577048D02*
X2566429Y-19567524D01*
X2566429Y-19567524D02*
X2566429Y-19586571D01*
X2690238Y-19767524D02*
X2671190Y-19758000D01*
X2671190Y-19758000D02*
X2661667Y-19738952D01*
X2661667Y-19738952D02*
X2661667Y-19567524D01*
X2795000Y-19767524D02*
X2775952Y-19758000D01*
X2775952Y-19758000D02*
X2766429Y-19738952D01*
X2766429Y-19738952D02*
X2766429Y-19567524D01*
X3023571Y-19767524D02*
X3023571Y-19567524D01*
X3023571Y-19567524D02*
X3090238Y-19710381D01*
X3090238Y-19710381D02*
X3156905Y-19567524D01*
X3156905Y-19567524D02*
X3156905Y-19767524D01*
X3337857Y-19767524D02*
X3337857Y-19662762D01*
X3337857Y-19662762D02*
X3328333Y-19643714D01*
X3328333Y-19643714D02*
X3309286Y-19634190D01*
X3309286Y-19634190D02*
X3271190Y-19634190D01*
X3271190Y-19634190D02*
X3252143Y-19643714D01*
X3337857Y-19758000D02*
X3318809Y-19767524D01*
X3318809Y-19767524D02*
X3271190Y-19767524D01*
X3271190Y-19767524D02*
X3252143Y-19758000D01*
X3252143Y-19758000D02*
X3242619Y-19738952D01*
X3242619Y-19738952D02*
X3242619Y-19719905D01*
X3242619Y-19719905D02*
X3252143Y-19700857D01*
X3252143Y-19700857D02*
X3271190Y-19691333D01*
X3271190Y-19691333D02*
X3318809Y-19691333D01*
X3318809Y-19691333D02*
X3337857Y-19681810D01*
X3433095Y-19634190D02*
X3433095Y-19834190D01*
X3433095Y-19643714D02*
X3452143Y-19634190D01*
X3452143Y-19634190D02*
X3490238Y-19634190D01*
X3490238Y-19634190D02*
X3509286Y-19643714D01*
X3509286Y-19643714D02*
X3518809Y-19653238D01*
X3518809Y-19653238D02*
X3528333Y-19672286D01*
X3528333Y-19672286D02*
X3528333Y-19729429D01*
X3528333Y-19729429D02*
X3518809Y-19748476D01*
X3518809Y-19748476D02*
X3509286Y-19758000D01*
X3509286Y-19758000D02*
X3490238Y-19767524D01*
X3490238Y-19767524D02*
X3452143Y-19767524D01*
X3452143Y-19767524D02*
X3433095Y-19758000D01*
X3614048Y-19748476D02*
X3623571Y-19758000D01*
X3623571Y-19758000D02*
X3614048Y-19767524D01*
X3614048Y-19767524D02*
X3604524Y-19758000D01*
X3604524Y-19758000D02*
X3614048Y-19748476D01*
X3614048Y-19748476D02*
X3614048Y-19767524D01*
X3614048Y-19643714D02*
X3623571Y-19653238D01*
X3623571Y-19653238D02*
X3614048Y-19662762D01*
X3614048Y-19662762D02*
X3604524Y-19653238D01*
X3604524Y-19653238D02*
X3614048Y-19643714D01*
X3614048Y-19643714D02*
X3614048Y-19662762D01*
X1795000Y-19995000D02*
X1995000Y-20195000D01*
X1995000Y-19995000D02*
X1795000Y-20195000D01*
X2328333Y-20054190D02*
X2328333Y-20187524D01*
X2280714Y-19978000D02*
X2233095Y-20120857D01*
X2233095Y-20120857D02*
X2356905Y-20120857D01*
X2433095Y-20168476D02*
X2442619Y-20178000D01*
X2442619Y-20178000D02*
X2433095Y-20187524D01*
X2433095Y-20187524D02*
X2423571Y-20178000D01*
X2423571Y-20178000D02*
X2433095Y-20168476D01*
X2433095Y-20168476D02*
X2433095Y-20187524D01*
X2509286Y-19987524D02*
X2633095Y-19987524D01*
X2633095Y-19987524D02*
X2566429Y-20063714D01*
X2566429Y-20063714D02*
X2595000Y-20063714D01*
X2595000Y-20063714D02*
X2614048Y-20073238D01*
X2614048Y-20073238D02*
X2623571Y-20082762D01*
X2623571Y-20082762D02*
X2633095Y-20101810D01*
X2633095Y-20101810D02*
X2633095Y-20149429D01*
X2633095Y-20149429D02*
X2623571Y-20168476D01*
X2623571Y-20168476D02*
X2614048Y-20178000D01*
X2614048Y-20178000D02*
X2595000Y-20187524D01*
X2595000Y-20187524D02*
X2537857Y-20187524D01*
X2537857Y-20187524D02*
X2518810Y-20178000D01*
X2518810Y-20178000D02*
X2509286Y-20168476D01*
X2756905Y-19987524D02*
X2775952Y-19987524D01*
X2775952Y-19987524D02*
X2795000Y-19997048D01*
X2795000Y-19997048D02*
X2804524Y-20006571D01*
X2804524Y-20006571D02*
X2814048Y-20025619D01*
X2814048Y-20025619D02*
X2823571Y-20063714D01*
X2823571Y-20063714D02*
X2823571Y-20111333D01*
X2823571Y-20111333D02*
X2814048Y-20149429D01*
X2814048Y-20149429D02*
X2804524Y-20168476D01*
X2804524Y-20168476D02*
X2795000Y-20178000D01*
X2795000Y-20178000D02*
X2775952Y-20187524D01*
X2775952Y-20187524D02*
X2756905Y-20187524D01*
X2756905Y-20187524D02*
X2737857Y-20178000D01*
X2737857Y-20178000D02*
X2728333Y-20168476D01*
X2728333Y-20168476D02*
X2718810Y-20149429D01*
X2718810Y-20149429D02*
X2709286Y-20111333D01*
X2709286Y-20111333D02*
X2709286Y-20063714D01*
X2709286Y-20063714D02*
X2718810Y-20025619D01*
X2718810Y-20025619D02*
X2728333Y-20006571D01*
X2728333Y-20006571D02*
X2737857Y-19997048D01*
X2737857Y-19997048D02*
X2756905Y-19987524D01*
X2947381Y-19987524D02*
X2966429Y-19987524D01*
X2966429Y-19987524D02*
X2985476Y-19997048D01*
X2985476Y-19997048D02*
X2995000Y-20006571D01*
X2995000Y-20006571D02*
X3004524Y-20025619D01*
X3004524Y-20025619D02*
X3014048Y-20063714D01*
X3014048Y-20063714D02*
X3014048Y-20111333D01*
X3014048Y-20111333D02*
X3004524Y-20149429D01*
X3004524Y-20149429D02*
X2995000Y-20168476D01*
X2995000Y-20168476D02*
X2985476Y-20178000D01*
X2985476Y-20178000D02*
X2966429Y-20187524D01*
X2966429Y-20187524D02*
X2947381Y-20187524D01*
X2947381Y-20187524D02*
X2928333Y-20178000D01*
X2928333Y-20178000D02*
X2918809Y-20168476D01*
X2918809Y-20168476D02*
X2909286Y-20149429D01*
X2909286Y-20149429D02*
X2899762Y-20111333D01*
X2899762Y-20111333D02*
X2899762Y-20063714D01*
X2899762Y-20063714D02*
X2909286Y-20025619D01*
X2909286Y-20025619D02*
X2918809Y-20006571D01*
X2918809Y-20006571D02*
X2928333Y-19997048D01*
X2928333Y-19997048D02*
X2947381Y-19987524D01*
X3099762Y-20187524D02*
X3099762Y-20054190D01*
X3099762Y-20073238D02*
X3109286Y-20063714D01*
X3109286Y-20063714D02*
X3128333Y-20054190D01*
X3128333Y-20054190D02*
X3156905Y-20054190D01*
X3156905Y-20054190D02*
X3175952Y-20063714D01*
X3175952Y-20063714D02*
X3185476Y-20082762D01*
X3185476Y-20082762D02*
X3185476Y-20187524D01*
X3185476Y-20082762D02*
X3195000Y-20063714D01*
X3195000Y-20063714D02*
X3214048Y-20054190D01*
X3214048Y-20054190D02*
X3242619Y-20054190D01*
X3242619Y-20054190D02*
X3261667Y-20063714D01*
X3261667Y-20063714D02*
X3271190Y-20082762D01*
X3271190Y-20082762D02*
X3271190Y-20187524D01*
X3366429Y-20187524D02*
X3366429Y-20054190D01*
X3366429Y-20073238D02*
X3375952Y-20063714D01*
X3375952Y-20063714D02*
X3395000Y-20054190D01*
X3395000Y-20054190D02*
X3423571Y-20054190D01*
X3423571Y-20054190D02*
X3442619Y-20063714D01*
X3442619Y-20063714D02*
X3452143Y-20082762D01*
X3452143Y-20082762D02*
X3452143Y-20187524D01*
X3452143Y-20082762D02*
X3461667Y-20063714D01*
X3461667Y-20063714D02*
X3480714Y-20054190D01*
X3480714Y-20054190D02*
X3509286Y-20054190D01*
X3509286Y-20054190D02*
X3528333Y-20063714D01*
X3528333Y-20063714D02*
X3537857Y-20082762D01*
X3537857Y-20082762D02*
X3537857Y-20187524D01*
X3928333Y-19978000D02*
X3756905Y-20235143D01*
X4185476Y-19987524D02*
X4204524Y-19987524D01*
X4204524Y-19987524D02*
X4223572Y-19997048D01*
X4223572Y-19997048D02*
X4233095Y-20006571D01*
X4233095Y-20006571D02*
X4242619Y-20025619D01*
X4242619Y-20025619D02*
X4252143Y-20063714D01*
X4252143Y-20063714D02*
X4252143Y-20111333D01*
X4252143Y-20111333D02*
X4242619Y-20149429D01*
X4242619Y-20149429D02*
X4233095Y-20168476D01*
X4233095Y-20168476D02*
X4223572Y-20178000D01*
X4223572Y-20178000D02*
X4204524Y-20187524D01*
X4204524Y-20187524D02*
X4185476Y-20187524D01*
X4185476Y-20187524D02*
X4166429Y-20178000D01*
X4166429Y-20178000D02*
X4156905Y-20168476D01*
X4156905Y-20168476D02*
X4147381Y-20149429D01*
X4147381Y-20149429D02*
X4137857Y-20111333D01*
X4137857Y-20111333D02*
X4137857Y-20063714D01*
X4137857Y-20063714D02*
X4147381Y-20025619D01*
X4147381Y-20025619D02*
X4156905Y-20006571D01*
X4156905Y-20006571D02*
X4166429Y-19997048D01*
X4166429Y-19997048D02*
X4185476Y-19987524D01*
X4337857Y-20168476D02*
X4347381Y-20178000D01*
X4347381Y-20178000D02*
X4337857Y-20187524D01*
X4337857Y-20187524D02*
X4328334Y-20178000D01*
X4328334Y-20178000D02*
X4337857Y-20168476D01*
X4337857Y-20168476D02*
X4337857Y-20187524D01*
X4537857Y-20187524D02*
X4423572Y-20187524D01*
X4480714Y-20187524D02*
X4480714Y-19987524D01*
X4480714Y-19987524D02*
X4461667Y-20016095D01*
X4461667Y-20016095D02*
X4442619Y-20035143D01*
X4442619Y-20035143D02*
X4423572Y-20044667D01*
X4709286Y-19987524D02*
X4671191Y-19987524D01*
X4671191Y-19987524D02*
X4652143Y-19997048D01*
X4652143Y-19997048D02*
X4642619Y-20006571D01*
X4642619Y-20006571D02*
X4623572Y-20035143D01*
X4623572Y-20035143D02*
X4614048Y-20073238D01*
X4614048Y-20073238D02*
X4614048Y-20149429D01*
X4614048Y-20149429D02*
X4623572Y-20168476D01*
X4623572Y-20168476D02*
X4633095Y-20178000D01*
X4633095Y-20178000D02*
X4652143Y-20187524D01*
X4652143Y-20187524D02*
X4690238Y-20187524D01*
X4690238Y-20187524D02*
X4709286Y-20178000D01*
X4709286Y-20178000D02*
X4718810Y-20168476D01*
X4718810Y-20168476D02*
X4728334Y-20149429D01*
X4728334Y-20149429D02*
X4728334Y-20101810D01*
X4728334Y-20101810D02*
X4718810Y-20082762D01*
X4718810Y-20082762D02*
X4709286Y-20073238D01*
X4709286Y-20073238D02*
X4690238Y-20063714D01*
X4690238Y-20063714D02*
X4652143Y-20063714D01*
X4652143Y-20063714D02*
X4633095Y-20073238D01*
X4633095Y-20073238D02*
X4623572Y-20082762D01*
X4623572Y-20082762D02*
X4614048Y-20101810D01*
X4823572Y-20187524D02*
X4861667Y-20187524D01*
X4861667Y-20187524D02*
X4880715Y-20178000D01*
X4880715Y-20178000D02*
X4890238Y-20168476D01*
X4890238Y-20168476D02*
X4909286Y-20139905D01*
X4909286Y-20139905D02*
X4918810Y-20101810D01*
X4918810Y-20101810D02*
X4918810Y-20025619D01*
X4918810Y-20025619D02*
X4909286Y-20006571D01*
X4909286Y-20006571D02*
X4899762Y-19997048D01*
X4899762Y-19997048D02*
X4880715Y-19987524D01*
X4880715Y-19987524D02*
X4842619Y-19987524D01*
X4842619Y-19987524D02*
X4823572Y-19997048D01*
X4823572Y-19997048D02*
X4814048Y-20006571D01*
X4814048Y-20006571D02*
X4804524Y-20025619D01*
X4804524Y-20025619D02*
X4804524Y-20073238D01*
X4804524Y-20073238D02*
X4814048Y-20092286D01*
X4814048Y-20092286D02*
X4823572Y-20101810D01*
X4823572Y-20101810D02*
X4842619Y-20111333D01*
X4842619Y-20111333D02*
X4880715Y-20111333D01*
X4880715Y-20111333D02*
X4899762Y-20101810D01*
X4899762Y-20101810D02*
X4909286Y-20092286D01*
X4909286Y-20092286D02*
X4918810Y-20073238D01*
X4985476Y-19987524D02*
X5109286Y-19987524D01*
X5109286Y-19987524D02*
X5042619Y-20063714D01*
X5042619Y-20063714D02*
X5071191Y-20063714D01*
X5071191Y-20063714D02*
X5090238Y-20073238D01*
X5090238Y-20073238D02*
X5099762Y-20082762D01*
X5099762Y-20082762D02*
X5109286Y-20101810D01*
X5109286Y-20101810D02*
X5109286Y-20149429D01*
X5109286Y-20149429D02*
X5099762Y-20168476D01*
X5099762Y-20168476D02*
X5090238Y-20178000D01*
X5090238Y-20178000D02*
X5071191Y-20187524D01*
X5071191Y-20187524D02*
X5014048Y-20187524D01*
X5014048Y-20187524D02*
X4995000Y-20178000D01*
X4995000Y-20178000D02*
X4985476Y-20168476D01*
X5185476Y-19987524D02*
X5185476Y-20025619D01*
X5261667Y-19987524D02*
X5261667Y-20025619D01*
X5556905Y-20263714D02*
X5547381Y-20254190D01*
X5547381Y-20254190D02*
X5528334Y-20225619D01*
X5528334Y-20225619D02*
X5518810Y-20206571D01*
X5518810Y-20206571D02*
X5509286Y-20178000D01*
X5509286Y-20178000D02*
X5499762Y-20130381D01*
X5499762Y-20130381D02*
X5499762Y-20092286D01*
X5499762Y-20092286D02*
X5509286Y-20044667D01*
X5509286Y-20044667D02*
X5518810Y-20016095D01*
X5518810Y-20016095D02*
X5528334Y-19997048D01*
X5528334Y-19997048D02*
X5547381Y-19968476D01*
X5547381Y-19968476D02*
X5556905Y-19958952D01*
X5718810Y-20054190D02*
X5718810Y-20187524D01*
X5671191Y-19978000D02*
X5623572Y-20120857D01*
X5623572Y-20120857D02*
X5747381Y-20120857D01*
X5975953Y-20187524D02*
X5975953Y-19987524D01*
X6061667Y-20187524D02*
X6061667Y-20082762D01*
X6061667Y-20082762D02*
X6052143Y-20063714D01*
X6052143Y-20063714D02*
X6033096Y-20054190D01*
X6033096Y-20054190D02*
X6004524Y-20054190D01*
X6004524Y-20054190D02*
X5985476Y-20063714D01*
X5985476Y-20063714D02*
X5975953Y-20073238D01*
X6185476Y-20187524D02*
X6166429Y-20178000D01*
X6166429Y-20178000D02*
X6156905Y-20168476D01*
X6156905Y-20168476D02*
X6147381Y-20149429D01*
X6147381Y-20149429D02*
X6147381Y-20092286D01*
X6147381Y-20092286D02*
X6156905Y-20073238D01*
X6156905Y-20073238D02*
X6166429Y-20063714D01*
X6166429Y-20063714D02*
X6185476Y-20054190D01*
X6185476Y-20054190D02*
X6214048Y-20054190D01*
X6214048Y-20054190D02*
X6233096Y-20063714D01*
X6233096Y-20063714D02*
X6242619Y-20073238D01*
X6242619Y-20073238D02*
X6252143Y-20092286D01*
X6252143Y-20092286D02*
X6252143Y-20149429D01*
X6252143Y-20149429D02*
X6242619Y-20168476D01*
X6242619Y-20168476D02*
X6233096Y-20178000D01*
X6233096Y-20178000D02*
X6214048Y-20187524D01*
X6214048Y-20187524D02*
X6185476Y-20187524D01*
X6366429Y-20187524D02*
X6347381Y-20178000D01*
X6347381Y-20178000D02*
X6337857Y-20158952D01*
X6337857Y-20158952D02*
X6337857Y-19987524D01*
X6518810Y-20178000D02*
X6499762Y-20187524D01*
X6499762Y-20187524D02*
X6461667Y-20187524D01*
X6461667Y-20187524D02*
X6442619Y-20178000D01*
X6442619Y-20178000D02*
X6433096Y-20158952D01*
X6433096Y-20158952D02*
X6433096Y-20082762D01*
X6433096Y-20082762D02*
X6442619Y-20063714D01*
X6442619Y-20063714D02*
X6461667Y-20054190D01*
X6461667Y-20054190D02*
X6499762Y-20054190D01*
X6499762Y-20054190D02*
X6518810Y-20063714D01*
X6518810Y-20063714D02*
X6528334Y-20082762D01*
X6528334Y-20082762D02*
X6528334Y-20101810D01*
X6528334Y-20101810D02*
X6433096Y-20120857D01*
X6604524Y-20178000D02*
X6623572Y-20187524D01*
X6623572Y-20187524D02*
X6661667Y-20187524D01*
X6661667Y-20187524D02*
X6680715Y-20178000D01*
X6680715Y-20178000D02*
X6690238Y-20158952D01*
X6690238Y-20158952D02*
X6690238Y-20149429D01*
X6690238Y-20149429D02*
X6680715Y-20130381D01*
X6680715Y-20130381D02*
X6661667Y-20120857D01*
X6661667Y-20120857D02*
X6633096Y-20120857D01*
X6633096Y-20120857D02*
X6614048Y-20111333D01*
X6614048Y-20111333D02*
X6604524Y-20092286D01*
X6604524Y-20092286D02*
X6604524Y-20082762D01*
X6604524Y-20082762D02*
X6614048Y-20063714D01*
X6614048Y-20063714D02*
X6633096Y-20054190D01*
X6633096Y-20054190D02*
X6661667Y-20054190D01*
X6661667Y-20054190D02*
X6680715Y-20063714D01*
X6756905Y-20263714D02*
X6766429Y-20254190D01*
X6766429Y-20254190D02*
X6785477Y-20225619D01*
X6785477Y-20225619D02*
X6795000Y-20206571D01*
X6795000Y-20206571D02*
X6804524Y-20178000D01*
X6804524Y-20178000D02*
X6814048Y-20130381D01*
X6814048Y-20130381D02*
X6814048Y-20092286D01*
X6814048Y-20092286D02*
X6804524Y-20044667D01*
X6804524Y-20044667D02*
X6795000Y-20016095D01*
X6795000Y-20016095D02*
X6785477Y-19997048D01*
X6785477Y-19997048D02*
X6766429Y-19968476D01*
X6766429Y-19968476D02*
X6756905Y-19958952D01*
X7118810Y-20263714D02*
X7109286Y-20254190D01*
X7109286Y-20254190D02*
X7090238Y-20225619D01*
X7090238Y-20225619D02*
X7080715Y-20206571D01*
X7080715Y-20206571D02*
X7071191Y-20178000D01*
X7071191Y-20178000D02*
X7061667Y-20130381D01*
X7061667Y-20130381D02*
X7061667Y-20092286D01*
X7061667Y-20092286D02*
X7071191Y-20044667D01*
X7071191Y-20044667D02*
X7080715Y-20016095D01*
X7080715Y-20016095D02*
X7090238Y-19997048D01*
X7090238Y-19997048D02*
X7109286Y-19968476D01*
X7109286Y-19968476D02*
X7118810Y-19958952D01*
X7195000Y-20054190D02*
X7195000Y-20187524D01*
X7195000Y-20073238D02*
X7204524Y-20063714D01*
X7204524Y-20063714D02*
X7223572Y-20054190D01*
X7223572Y-20054190D02*
X7252143Y-20054190D01*
X7252143Y-20054190D02*
X7271191Y-20063714D01*
X7271191Y-20063714D02*
X7280715Y-20082762D01*
X7280715Y-20082762D02*
X7280715Y-20187524D01*
X7404524Y-20187524D02*
X7385477Y-20178000D01*
X7385477Y-20178000D02*
X7375953Y-20168476D01*
X7375953Y-20168476D02*
X7366429Y-20149429D01*
X7366429Y-20149429D02*
X7366429Y-20092286D01*
X7366429Y-20092286D02*
X7375953Y-20073238D01*
X7375953Y-20073238D02*
X7385477Y-20063714D01*
X7385477Y-20063714D02*
X7404524Y-20054190D01*
X7404524Y-20054190D02*
X7433096Y-20054190D01*
X7433096Y-20054190D02*
X7452143Y-20063714D01*
X7452143Y-20063714D02*
X7461667Y-20073238D01*
X7461667Y-20073238D02*
X7471191Y-20092286D01*
X7471191Y-20092286D02*
X7471191Y-20149429D01*
X7471191Y-20149429D02*
X7461667Y-20168476D01*
X7461667Y-20168476D02*
X7452143Y-20178000D01*
X7452143Y-20178000D02*
X7433096Y-20187524D01*
X7433096Y-20187524D02*
X7404524Y-20187524D01*
X7528334Y-20054190D02*
X7604524Y-20054190D01*
X7556905Y-19987524D02*
X7556905Y-20158952D01*
X7556905Y-20158952D02*
X7566429Y-20178000D01*
X7566429Y-20178000D02*
X7585477Y-20187524D01*
X7585477Y-20187524D02*
X7604524Y-20187524D01*
X7823572Y-20054190D02*
X7823572Y-20254190D01*
X7823572Y-20063714D02*
X7842619Y-20054190D01*
X7842619Y-20054190D02*
X7880715Y-20054190D01*
X7880715Y-20054190D02*
X7899762Y-20063714D01*
X7899762Y-20063714D02*
X7909286Y-20073238D01*
X7909286Y-20073238D02*
X7918810Y-20092286D01*
X7918810Y-20092286D02*
X7918810Y-20149429D01*
X7918810Y-20149429D02*
X7909286Y-20168476D01*
X7909286Y-20168476D02*
X7899762Y-20178000D01*
X7899762Y-20178000D02*
X7880715Y-20187524D01*
X7880715Y-20187524D02*
X7842619Y-20187524D01*
X7842619Y-20187524D02*
X7823572Y-20178000D01*
X8033096Y-20187524D02*
X8014048Y-20178000D01*
X8014048Y-20178000D02*
X8004524Y-20158952D01*
X8004524Y-20158952D02*
X8004524Y-19987524D01*
X8195000Y-20187524D02*
X8195000Y-20082762D01*
X8195000Y-20082762D02*
X8185477Y-20063714D01*
X8185477Y-20063714D02*
X8166429Y-20054190D01*
X8166429Y-20054190D02*
X8128334Y-20054190D01*
X8128334Y-20054190D02*
X8109286Y-20063714D01*
X8195000Y-20178000D02*
X8175953Y-20187524D01*
X8175953Y-20187524D02*
X8128334Y-20187524D01*
X8128334Y-20187524D02*
X8109286Y-20178000D01*
X8109286Y-20178000D02*
X8099762Y-20158952D01*
X8099762Y-20158952D02*
X8099762Y-20139905D01*
X8099762Y-20139905D02*
X8109286Y-20120857D01*
X8109286Y-20120857D02*
X8128334Y-20111333D01*
X8128334Y-20111333D02*
X8175953Y-20111333D01*
X8175953Y-20111333D02*
X8195000Y-20101810D01*
X8261667Y-20054190D02*
X8337858Y-20054190D01*
X8290239Y-19987524D02*
X8290239Y-20158952D01*
X8290239Y-20158952D02*
X8299762Y-20178000D01*
X8299762Y-20178000D02*
X8318810Y-20187524D01*
X8318810Y-20187524D02*
X8337858Y-20187524D01*
X8480715Y-20178000D02*
X8461667Y-20187524D01*
X8461667Y-20187524D02*
X8423572Y-20187524D01*
X8423572Y-20187524D02*
X8404524Y-20178000D01*
X8404524Y-20178000D02*
X8395001Y-20158952D01*
X8395001Y-20158952D02*
X8395001Y-20082762D01*
X8395001Y-20082762D02*
X8404524Y-20063714D01*
X8404524Y-20063714D02*
X8423572Y-20054190D01*
X8423572Y-20054190D02*
X8461667Y-20054190D01*
X8461667Y-20054190D02*
X8480715Y-20063714D01*
X8480715Y-20063714D02*
X8490239Y-20082762D01*
X8490239Y-20082762D02*
X8490239Y-20101810D01*
X8490239Y-20101810D02*
X8395001Y-20120857D01*
X8661667Y-20187524D02*
X8661667Y-19987524D01*
X8661667Y-20178000D02*
X8642620Y-20187524D01*
X8642620Y-20187524D02*
X8604524Y-20187524D01*
X8604524Y-20187524D02*
X8585477Y-20178000D01*
X8585477Y-20178000D02*
X8575953Y-20168476D01*
X8575953Y-20168476D02*
X8566429Y-20149429D01*
X8566429Y-20149429D02*
X8566429Y-20092286D01*
X8566429Y-20092286D02*
X8575953Y-20073238D01*
X8575953Y-20073238D02*
X8585477Y-20063714D01*
X8585477Y-20063714D02*
X8604524Y-20054190D01*
X8604524Y-20054190D02*
X8642620Y-20054190D01*
X8642620Y-20054190D02*
X8661667Y-20063714D01*
X8737858Y-20263714D02*
X8747382Y-20254190D01*
X8747382Y-20254190D02*
X8766429Y-20225619D01*
X8766429Y-20225619D02*
X8775953Y-20206571D01*
X8775953Y-20206571D02*
X8785477Y-20178000D01*
X8785477Y-20178000D02*
X8795001Y-20130381D01*
X8795001Y-20130381D02*
X8795001Y-20092286D01*
X8795001Y-20092286D02*
X8785477Y-20044667D01*
X8785477Y-20044667D02*
X8775953Y-20016095D01*
X8775953Y-20016095D02*
X8766429Y-19997048D01*
X8766429Y-19997048D02*
X8747382Y-19968476D01*
X8747382Y-19968476D02*
X8737858Y-19958952D01*
M02*
