M48
; DRILL file {KiCad 7.0.2} date Wed Aug 30 10:53:46 2023
; FORMAT={3:3/ absolute / metric / suppress trailing zeros}
; #@! TF.CreationDate,2023-08-30T10:53:46+01:00
; #@! TF.GenerationSoftware,Kicad,Pcbnew,7.0.2
; #@! TF.FileFunction,MixedPlating,1,2
FMAT,2
METRIC,LZ
; #@! TA.AperFunction,Plated,PTH,ViaDrill
T1C0.400
; #@! TA.AperFunction,Plated,PTH,ComponentDrill
T2C0.889
; #@! TA.AperFunction,Plated,PTH,ComponentDrill
T3C1.000
; #@! TA.AperFunction,Plated,PTH,ComponentDrill
T4C1.803
; #@! TA.AperFunction,NonPlated,NPTH,ComponentDrill
T5C4.300
%
G90
G05
T1
X03468Y-1427
X035677Y-142629
X03678Y-08776
X03792Y-08777
X04979Y-05253
X04979Y-10303
X04979Y-15353
X05265Y-06258
X05265Y-11308
X05265Y-16358
X05272Y-05577
X05272Y-10627
X05272Y-15677
X053865Y-059315
X053865Y-109815
X053865Y-160315
X056526Y-070866
X056526Y-121366
X056526Y-171866
X05817Y-08612
X05825Y-09005
X05843Y-140548
X05847Y-136618
X064208Y-033961
X06422Y-03496
X06928Y-03646
X06928Y-03746
X07309Y-04844
X074745Y-077538
X074745Y-128038
X07508Y-04842
X07582Y-05083
X07716Y-05079
X077605Y-087588
X077605Y-138088
X077675Y-080778
X077675Y-131278
X07882Y-084323
X07882Y-134823
X081481Y-095874
X081481Y-146374
X083081Y-06111
X08336Y-06504
X08399Y-11155
X08399Y-11551
X08399Y-16615
X08406Y-16215
X08412Y-04761
X08571Y-04753
X09148Y-04754
X09316Y-04756
X09581Y-0481
X096905Y-04803
X10029Y-05253
X10029Y-10303
X10029Y-15353
X10315Y-06258
X10315Y-11308
X10315Y-16358
X10322Y-05577
X10322Y-10627
X10322Y-15677
X104365Y-059315
X104365Y-109815
X104365Y-160315
X107026Y-070866
X107026Y-121366
X107026Y-171866
X10856Y-13678
X10857Y-14055
X10867Y-08615
X10883Y-09012
X11557Y-0485
X11757Y-04842
X12432Y-05541
X12526Y-077605
X12526Y-128105
X1264Y-05541
X12812Y-087655
X12812Y-138155
X12819Y-080845
X12819Y-131345
X129335Y-08439
X129335Y-13489
X131996Y-095941
X131996Y-146441
X1331Y-04747
X1333Y-16604
X13332Y-16211
X13392Y-11161
X13403Y-11554
X13409Y-06114
X13413Y-0651
X13451Y-04745
X13752Y-04737
X13904Y-0473
X14159Y-04727
X14316Y-04727
X15079Y-05253
X15079Y-10303
X15079Y-15353
X15365Y-06258
X15365Y-11308
X15365Y-16358
X15372Y-05577
X15372Y-10627
X15372Y-15677
X154865Y-059315
X154865Y-109815
X154865Y-160315
X157526Y-070866
X157526Y-121366
X157526Y-171866
X15862Y-1366
X15874Y-08614
X1588Y-14055
X15881Y-09003
X16632Y-04746
X16823Y-04846
X175745Y-077538
X175745Y-128038
X17612Y-0534
X17797Y-05512
X178605Y-087588
X178605Y-138088
X178675Y-080778
X178675Y-131278
X17982Y-084323
X17982Y-134823
X182481Y-095874
X182481Y-146374
X18323Y-04792
X18377Y-16211
X18383Y-16606
X18392Y-06115
X18395Y-06507
X18411Y-11161
X18424Y-11548
X18515Y-04799
X18793Y-04733
X18963Y-04736
X19251Y-04729
X19281Y-0306
X1947Y-04729
X19722Y-02963
X20129Y-05253
X20129Y-10303
X20129Y-15353
X20415Y-06258
X20415Y-11308
X20415Y-16358
X20422Y-05577
X20422Y-10627
X20422Y-15677
X20497Y-02821
X205365Y-059315
X205365Y-109815
X205365Y-160315
X208026Y-070866
X208026Y-121366
X208026Y-171866
X209125Y-086185
X20921Y-08996
X20923Y-13669
X209425Y-140615
X21733Y-0472
X21871Y-04796
X22295Y-02943
X22439Y-04848
X224405Y-050175
X22626Y-077605
X22626Y-128105
X22912Y-087655
X22912Y-138155
X22919Y-080845
X22919Y-131345
X230335Y-08439
X230335Y-13489
X232996Y-095941
X232996Y-146441
X23822Y-02778
T2
X115Y-026
X115Y-02854
X11754Y-026
X11754Y-02854
X12008Y-026
X12008Y-02854
X12262Y-026
X12262Y-02854
X12516Y-026
X12516Y-02854
X1277Y-026
X1277Y-02854
X13024Y-026
X13024Y-02854
X13278Y-026
X13278Y-02854
X13532Y-026
X13532Y-02854
X13786Y-026
X13786Y-02854
X1404Y-026
X1404Y-02854
X14294Y-026
X14294Y-02854
X14548Y-026
X14548Y-02854
X14802Y-026
X14802Y-02854
X15056Y-026
X15056Y-02854
X1531Y-026
X1531Y-02854
X15564Y-026
X15564Y-02854
X15818Y-026
X15818Y-02854
X16072Y-026
X16072Y-02854
X16326Y-026
X16326Y-02854
X1658Y-026
X1658Y-02854
X16834Y-026
X16834Y-02854
X17088Y-026
X17088Y-02854
X17342Y-026
X17342Y-02854
X17596Y-026
X17596Y-02854
T4
X045Y-058
X045Y-1085
X045Y-159
X05928Y-0521
X05928Y-0639
X05928Y-1026
X05928Y-1144
X05928Y-1531
X05928Y-1649
X0618Y-058
X0618Y-1085
X0618Y-159
X07Y-083
X07Y-1335
X08428Y-0771
X08428Y-0889
X08428Y-1276
X08428Y-1394
X0868Y-083
X0868Y-1335
X0955Y-058
X0955Y-1085
X0955Y-159
X10978Y-0521
X10978Y-0639
X10978Y-1026
X10978Y-1144
X10978Y-1531
X10978Y-1649
X1123Y-058
X1123Y-1085
X1123Y-159
X1205Y-083
X1205Y-1335
X13478Y-0771
X13478Y-0889
X13478Y-1276
X13478Y-1394
X1373Y-083
X1373Y-1335
X146Y-058
X146Y-1085
X146Y-159
X16028Y-0521
X16028Y-0639
X16028Y-1026
X16028Y-1144
X16028Y-1531
X16028Y-1649
X1628Y-058
X1628Y-1085
X1628Y-159
X171Y-083
X171Y-1335
X18528Y-0771
X18528Y-0889
X18528Y-1276
X18528Y-1394
X1878Y-083
X1878Y-1335
X1965Y-058
X1965Y-1085
X1965Y-159
X21078Y-0521
X21078Y-0639
X21078Y-1026
X21078Y-1144
X21078Y-1531
X21078Y-1649
X2133Y-058
X2133Y-1085
X2133Y-159
X2215Y-083
X2215Y-1335
X23578Y-0771
X23578Y-0889
X23578Y-1276
X23578Y-1394
X2383Y-083
X2383Y-1335
T5
X02479Y-18969
X02481Y-02483
X26168Y-02483
X26168Y-18968
T3
G00X246Y-03241
M15
G01X246Y-03021
M16
G05
G00X2519Y-02791
M15
G01X2497Y-02791
M16
G05
G00X2521Y-03421
M15
G01X2495Y-03421
M16
G05
T0
M30
