%TF.GenerationSoftware,KiCad,Pcbnew,7.0.2*%
%TF.CreationDate,2023-08-30T10:53:37+01:00*%
%TF.ProjectId,Air quality project,41697220-7175-4616-9c69-74792070726f,rev?*%
%TF.SameCoordinates,Original*%
%TF.FileFunction,Plated,1,2,PTH,Mixed*%
%TF.FilePolarity,Positive*%
%FSLAX46Y46*%
G04 Gerber Fmt 4.6, Leading zero omitted, Abs format (unit mm)*
G04 Created by KiCad (PCBNEW 7.0.2) date 2023-08-30 10:53:37*
%MOMM*%
%LPD*%
G01*
G04 APERTURE LIST*
%TA.AperFunction,ViaDrill*%
%ADD10C,0.400000*%
%TD*%
%TA.AperFunction,ComponentDrill*%
%ADD11C,0.889000*%
%TD*%
G04 aperture for slot hole*
%TA.AperFunction,ComponentDrill*%
%ADD12O,1.000000X3.200000*%
%TD*%
G04 aperture for slot hole*
%TA.AperFunction,ComponentDrill*%
%ADD13O,3.200000X1.000000*%
%TD*%
G04 aperture for slot hole*
%TA.AperFunction,ComponentDrill*%
%ADD14O,3.600000X1.000000*%
%TD*%
%TA.AperFunction,ComponentDrill*%
%ADD15C,1.803400*%
%TD*%
G04 APERTURE END LIST*
D10*
X34680000Y-142700000D03*
X35676995Y-142629240D03*
X36780000Y-87760000D03*
X37920000Y-87770000D03*
X49790000Y-52530000D03*
X49790000Y-103030000D03*
X49790000Y-153530000D03*
X52650000Y-62580000D03*
X52650000Y-113080000D03*
X52650000Y-163580000D03*
X52720000Y-55770000D03*
X52720000Y-106270000D03*
X52720000Y-156770000D03*
X53865048Y-59315048D03*
X53865048Y-109815048D03*
X53865048Y-160315048D03*
X56526000Y-70866000D03*
X56526000Y-121366000D03*
X56526000Y-171866000D03*
X58170000Y-86120000D03*
X58250000Y-90050000D03*
X58430000Y-140547652D03*
X58470000Y-136617652D03*
X64207681Y-33960574D03*
X64220000Y-34960000D03*
X69280000Y-36460000D03*
X69280000Y-37459503D03*
X73090000Y-48440000D03*
X74744695Y-77537652D03*
X74744695Y-128037652D03*
X75080000Y-48420000D03*
X75820000Y-50830000D03*
X77160000Y-50790000D03*
X77604695Y-87587652D03*
X77604695Y-138087652D03*
X77674695Y-80777652D03*
X77674695Y-131277652D03*
X78819743Y-84322700D03*
X78819743Y-134822700D03*
X81480695Y-95873652D03*
X81480695Y-146373652D03*
X83080500Y-61110000D03*
X83360000Y-65040000D03*
X83990000Y-111550000D03*
X83990000Y-115510000D03*
X83990000Y-166150000D03*
X84060000Y-162150000D03*
X84120000Y-47610000D03*
X85710000Y-47530000D03*
X91480000Y-47540000D03*
X93160000Y-47560000D03*
X95810000Y-48100000D03*
X96904808Y-48029790D03*
X100290000Y-52530000D03*
X100290000Y-103030000D03*
X100290000Y-153530000D03*
X103150000Y-62580000D03*
X103150000Y-113080000D03*
X103150000Y-163580000D03*
X103220000Y-55770000D03*
X103220000Y-106270000D03*
X103220000Y-156770000D03*
X104365048Y-59315048D03*
X104365048Y-109815048D03*
X104365048Y-160315048D03*
X107026000Y-70866000D03*
X107026000Y-121366000D03*
X107026000Y-171866000D03*
X108560000Y-136780000D03*
X108570000Y-140550000D03*
X108670000Y-86150000D03*
X108830000Y-90120000D03*
X115570000Y-48500000D03*
X117570000Y-48420000D03*
X124320000Y-55410000D03*
X125259695Y-77605000D03*
X125259695Y-128105000D03*
X126400000Y-55410000D03*
X128119695Y-87655000D03*
X128119695Y-138155000D03*
X128189695Y-80845000D03*
X128189695Y-131345000D03*
X129334743Y-84390048D03*
X129334743Y-134890048D03*
X131995695Y-95941000D03*
X131995695Y-146441000D03*
X133100000Y-47470000D03*
X133300000Y-166040000D03*
X133320000Y-162110000D03*
X133920000Y-111610000D03*
X134030000Y-115540000D03*
X134090000Y-61140000D03*
X134130000Y-65100000D03*
X134510000Y-47450000D03*
X137520000Y-47370000D03*
X139040000Y-47300000D03*
X141590000Y-47270000D03*
X143160000Y-47270000D03*
X150790000Y-52530000D03*
X150790000Y-103030000D03*
X150790000Y-153530000D03*
X153650000Y-62580000D03*
X153650000Y-113080000D03*
X153650000Y-163580000D03*
X153720000Y-55770000D03*
X153720000Y-106270000D03*
X153720000Y-156770000D03*
X154865048Y-59315048D03*
X154865048Y-109815048D03*
X154865048Y-160315048D03*
X157526000Y-70866000D03*
X157526000Y-121366000D03*
X157526000Y-171866000D03*
X158620000Y-136600000D03*
X158740000Y-86140000D03*
X158800000Y-140550000D03*
X158810000Y-90030000D03*
X166320000Y-47460000D03*
X168230000Y-48460000D03*
X175744695Y-77537652D03*
X175744695Y-128037652D03*
X176120000Y-53400000D03*
X177970000Y-55120000D03*
X178604695Y-87587652D03*
X178604695Y-138087652D03*
X178674695Y-80777652D03*
X178674695Y-131277652D03*
X179819743Y-84322700D03*
X179819743Y-134822700D03*
X182480695Y-95873652D03*
X182480695Y-146373652D03*
X183230000Y-47920000D03*
X183770000Y-162110000D03*
X183830000Y-166060000D03*
X183920000Y-61150000D03*
X183950000Y-65070000D03*
X184110000Y-111610000D03*
X184240000Y-115480000D03*
X185150000Y-47990000D03*
X187930000Y-47330000D03*
X189630000Y-47360000D03*
X192510000Y-47290000D03*
X192810000Y-30600000D03*
X194700000Y-47290000D03*
X197220000Y-29630000D03*
X201290000Y-52530000D03*
X201290000Y-103030000D03*
X201290000Y-153530000D03*
X204150000Y-62580000D03*
X204150000Y-113080000D03*
X204150000Y-163580000D03*
X204220000Y-55770000D03*
X204220000Y-106270000D03*
X204220000Y-156770000D03*
X204970000Y-28210000D03*
X205365048Y-59315048D03*
X205365048Y-109815048D03*
X205365048Y-160315048D03*
X208026000Y-70866000D03*
X208026000Y-121366000D03*
X208026000Y-171866000D03*
X209125000Y-86185000D03*
X209210000Y-89960000D03*
X209230000Y-136690000D03*
X209425000Y-140615000D03*
X217330000Y-47200000D03*
X218710000Y-47960000D03*
X222950000Y-29430000D03*
X224390000Y-48480000D03*
X224405000Y-50175000D03*
X226259695Y-77605000D03*
X226259695Y-128105000D03*
X229119695Y-87655000D03*
X229119695Y-138155000D03*
X229189695Y-80845000D03*
X229189695Y-131345000D03*
X230334743Y-84390048D03*
X230334743Y-134890048D03*
X232995695Y-95941000D03*
X232995695Y-146441000D03*
X238220000Y-27780000D03*
D11*
%TO.C,J2*%
X115000000Y-26000000D03*
X115000000Y-28540000D03*
X117540000Y-26000000D03*
X117540000Y-28540000D03*
X120080000Y-26000000D03*
X120080000Y-28540000D03*
X122620000Y-26000000D03*
X122620000Y-28540000D03*
X125160000Y-26000000D03*
X125160000Y-28540000D03*
X127700000Y-26000000D03*
X127700000Y-28540000D03*
X130240000Y-26000000D03*
X130240000Y-28540000D03*
X132780000Y-26000000D03*
X132780000Y-28540000D03*
X135320000Y-26000000D03*
X135320000Y-28540000D03*
X137860000Y-26000000D03*
X137860000Y-28540000D03*
X140400000Y-26000000D03*
X140400000Y-28540000D03*
X142940000Y-26000000D03*
X142940000Y-28540000D03*
X145480000Y-26000000D03*
X145480000Y-28540000D03*
X148020000Y-26000000D03*
X148020000Y-28540000D03*
X150560000Y-26000000D03*
X150560000Y-28540000D03*
X153100000Y-26000000D03*
X153100000Y-28540000D03*
X155640000Y-26000000D03*
X155640000Y-28540000D03*
X158180000Y-26000000D03*
X158180000Y-28540000D03*
X160720000Y-26000000D03*
X160720000Y-28540000D03*
X163260000Y-26000000D03*
X163260000Y-28540000D03*
X165800000Y-26000000D03*
X165800000Y-28540000D03*
X168340000Y-26000000D03*
X168340000Y-28540000D03*
X170880000Y-26000000D03*
X170880000Y-28540000D03*
X173420000Y-26000000D03*
X173420000Y-28540000D03*
X175960000Y-26000000D03*
X175960000Y-28540000D03*
D12*
%TO.C,J1*%
X246000000Y-31310000D03*
D13*
X250800000Y-27910000D03*
D14*
X250800000Y-34210000D03*
D15*
%TO.C,P1*%
X45000000Y-58000001D03*
%TO.C,P2*%
X45000000Y-108500001D03*
%TO.C,P3*%
X45000000Y-159000001D03*
%TO.C,P1*%
X59280000Y-52100001D03*
X59280000Y-63900001D03*
%TO.C,P2*%
X59280000Y-102600001D03*
X59280000Y-114400001D03*
%TO.C,P3*%
X59280000Y-153100001D03*
X59280000Y-164900001D03*
%TO.C,P1*%
X61800000Y-58000001D03*
%TO.C,P2*%
X61800000Y-108500001D03*
%TO.C,P3*%
X61800000Y-159000001D03*
%TO.C,P4*%
X70000000Y-83000001D03*
%TO.C,P5*%
X70000000Y-133500001D03*
%TO.C,P4*%
X84280000Y-77100001D03*
X84280000Y-88900001D03*
%TO.C,P5*%
X84280000Y-127600001D03*
X84280000Y-139400001D03*
%TO.C,P4*%
X86800000Y-83000001D03*
%TO.C,P5*%
X86800000Y-133500001D03*
%TO.C,P6*%
X95500000Y-58000001D03*
%TO.C,P7*%
X95500000Y-108500001D03*
%TO.C,P8*%
X95500000Y-159000001D03*
%TO.C,P6*%
X109780000Y-52100001D03*
X109780000Y-63900001D03*
%TO.C,P7*%
X109780000Y-102600001D03*
X109780000Y-114400001D03*
%TO.C,P8*%
X109780000Y-153100001D03*
X109780000Y-164900001D03*
%TO.C,P6*%
X112300000Y-58000001D03*
%TO.C,P7*%
X112300000Y-108500001D03*
%TO.C,P8*%
X112300000Y-159000001D03*
%TO.C,P9*%
X120500000Y-83000001D03*
%TO.C,P10*%
X120500000Y-133500001D03*
%TO.C,P9*%
X134780000Y-77100001D03*
X134780000Y-88900001D03*
%TO.C,P10*%
X134780000Y-127600001D03*
X134780000Y-139400001D03*
%TO.C,P9*%
X137300000Y-83000001D03*
%TO.C,P10*%
X137300000Y-133500001D03*
%TO.C,P11*%
X146000000Y-58000001D03*
%TO.C,P12*%
X146000000Y-108500001D03*
%TO.C,P13*%
X146000000Y-159000001D03*
%TO.C,P11*%
X160280000Y-52100001D03*
X160280000Y-63900001D03*
%TO.C,P12*%
X160280000Y-102600001D03*
X160280000Y-114400001D03*
%TO.C,P13*%
X160280000Y-153100001D03*
X160280000Y-164900001D03*
%TO.C,P11*%
X162800000Y-58000001D03*
%TO.C,P12*%
X162800000Y-108500001D03*
%TO.C,P13*%
X162800000Y-159000001D03*
%TO.C,P14*%
X171000000Y-83000001D03*
%TO.C,P15*%
X171000000Y-133500001D03*
%TO.C,P14*%
X185280000Y-77100001D03*
X185280000Y-88900001D03*
%TO.C,P15*%
X185280000Y-127600001D03*
X185280000Y-139400001D03*
%TO.C,P14*%
X187800000Y-83000001D03*
%TO.C,P15*%
X187800000Y-133500001D03*
%TO.C,P16*%
X196500000Y-58000001D03*
%TO.C,P17*%
X196500000Y-108500001D03*
%TO.C,P18*%
X196500000Y-159000001D03*
%TO.C,P16*%
X210780000Y-52100001D03*
X210780000Y-63900001D03*
%TO.C,P17*%
X210780000Y-102600001D03*
X210780000Y-114400001D03*
%TO.C,P18*%
X210780000Y-153100001D03*
X210780000Y-164900001D03*
%TO.C,P16*%
X213300000Y-58000001D03*
%TO.C,P17*%
X213300000Y-108500001D03*
%TO.C,P18*%
X213300000Y-159000001D03*
%TO.C,P19*%
X221500000Y-83000001D03*
%TO.C,P20*%
X221500000Y-133500001D03*
%TO.C,P19*%
X235780000Y-77100001D03*
X235780000Y-88900001D03*
%TO.C,P20*%
X235780000Y-127600001D03*
X235780000Y-139400001D03*
%TO.C,P19*%
X238300000Y-83000001D03*
%TO.C,P20*%
X238300000Y-133500001D03*
M02*
